<svg xmlns="http://www.w3.org/2000/svg" viewBox="0 0 500 500"><g id="freepik--background-complete--inject-103"><path d="M348.63,241.81s26.41,9.19,15.82,21.24-30.15,20.77-18.21,28.56c11.94,7.79,118.68,3.49,118.68,3.49l-13.6-53.29h-102.69Z" style="fill:#f0f0f0;"></path><path d="M466.42,346.99c-14.14-18.21-237.56-23.45-250.69-36.18-13.13-12.73,34.01-44.97,33.78-59.17-.24-14.2-209.8-6.99-209.8-6.99l-.07,79.94c2.7,15.01,14.66,27.62,28.59,34.33,15.26,7.36,32.6,8.86,49.52,9.64,16.92,.78,34.13,1,50.28,6.1,15.79,4.99,30.74,15.57,36.71,30.96,127.89,.33,283.36,.52,283.17-.54-.33-1.79-7.35-39.89-21.49-58.1Z" style="fill:#f0f0f0;"></path><g><g><g><path d="M443.92,330.2h-180.75c-3.23,0-5.86-2.63-5.86-5.86V61.06c0-3.23,2.63-5.86,5.86-5.86h180.75c3.23,0,5.86,2.63,5.86,5.86V324.34c0,3.23-2.63,5.86-5.86,5.86ZM263.17,55.45c-3.09,0-5.61,2.52-5.61,5.61V324.34c0,3.09,2.52,5.61,5.61,5.61h180.75c3.09,0,5.61-2.52,5.61-5.61V61.06c0-3.09-2.52-5.61-5.61-5.61h-180.75Z" style="fill:#e0e0e0;"></path><path d="M235.49,330.2H54.75c-3.23,0-5.86-2.63-5.86-5.86V61.06c0-3.23,2.63-5.86,5.86-5.86H235.49c3.23,0,5.86,2.63,5.86,5.86V324.34c0,3.23-2.63,5.86-5.86,5.86ZM54.75,55.45c-3.09,0-5.61,2.52-5.61,5.61V324.34c0,3.09,2.52,5.61,5.61,5.61H235.49c3.09,0,5.61-2.52,5.61-5.61V61.06c0-3.09-2.52-5.61-5.61-5.61H54.75Z" style="fill:#e0e0e0;"></path></g><rect x="0" y="391.27" width="500" height=".25" style="fill:#e0e0e0;"></rect></g><rect x="51.67" y="405.53" width="16.06" height=".25" style="fill:#e0e0e0;"></rect><rect x="170.35" y="402.82" width="53.53" height=".25" style="fill:#e0e0e0;"></rect><rect x="68.73" y="414.82" width="36.25" height=".25" style="fill:#e0e0e0;"></rect><rect x="378.35" y="402.69" width="43.19" height=".25" style="fill:#e0e0e0;"></rect><rect x="430.45" y="402.69" width="6.33" height=".25" style="fill:#e0e0e0;"></rect><rect x="316.21" y="408.92" width="53.89" height=".25" style="fill:#e0e0e0;"></rect></g><path d="M127.5,74.6c-1.98-1.5-4.88-1.67-7.03-.41-2.85-5.76-10.79-8.3-16.45-5.27-1.48-6.2-7.59-10.97-13.97-10.9-6.38,.08-12.37,4.99-13.7,11.23-.21,.99-.35,2.08-1.06,2.8-1.15,1.18-3.08,.78-4.72,.65-5.17-.4-10.36,3.22-11.77,8.21l71.13-.26c.62-2.41-.45-4.56-2.43-6.06Z" style="fill:#f0f0f0;"></path><path d="M341.95,53.94c-2.06-1.55-5.06-1.73-7.29-.43-2.95-5.97-11.19-8.6-17.06-5.46-1.53-6.43-7.87-11.38-14.48-11.3-6.61,.08-12.83,5.17-14.2,11.64-.22,1.03-.36,2.15-1.1,2.9-1.19,1.22-3.19,.81-4.89,.68-5.35-.42-10.74,3.34-12.2,8.51l73.74-.27c.65-2.5-.47-4.73-2.52-6.28Z" style="fill:#f0f0f0;"></path><path d="M171.75,50.85c-.86-.65-2.12-.73-3.06-.18-1.24-2.5-4.69-3.61-7.15-2.29-.64-2.7-3.3-4.77-6.07-4.74-2.77,.03-5.38,2.17-5.96,4.88-.09,.43-.15,.9-.46,1.22-.5,.51-1.34,.34-2.05,.28-2.25-.18-4.51,1.4-5.12,3.57l30.93-.11c.27-1.05-.2-1.98-1.06-2.64Z" style="fill:#f0f0f0;"></path><path d="M402.58,72.82c-.86-.65-2.12-.73-3.06-.18-1.24-2.5-4.69-3.61-7.15-2.29-.64-2.7-3.3-4.77-6.07-4.74-2.77,.03-5.38,2.17-5.96,4.88-.09,.43-.15,.9-.46,1.22-.5,.51-1.34,.34-2.05,.28-2.25-.18-4.51,1.4-5.12,3.57l30.93-.11c.27-1.05-.2-1.98-1.06-2.64Z" style="fill:#f0f0f0;"></path><path d="M440.57,47.68c-1.31-.99-3.22-1.1-4.63-.27-1.88-3.79-7.11-5.47-10.84-3.47-.97-4.09-5-7.23-9.2-7.18-4.2,.05-8.15,3.29-9.03,7.4-.14,.65-.23,1.37-.7,1.85-.76,.78-2.03,.52-3.11,.43-3.4-.27-6.83,2.12-7.75,5.41l46.87-.17c.41-1.59-.3-3.01-1.6-3.99Z" style="fill:#f0f0f0;"></path></g><g id="freepik--Shadow--inject-103"><path d="M484.38,455.76c0,3.73-103.08,6.76-230.23,6.76s-230.23-3.03-230.23-6.76,103.08-6.76,230.23-6.76,230.23,3.03,230.23,6.76Z" style="fill:#f5f5f5;"></path></g><g id="freepik--College--inject-103"><g><rect x="181.58" y="88.4" width="132.92" height="129.48" style="fill:#263238;"></rect><rect x="181.58" y="88.4" width="132.92" height="129.48" style="fill:#fff; opacity:.5;"></rect><rect x="189.07" y="169.12" width="119.41" height="46.3" style="fill:#fff; opacity:.3;"></rect><rect x="190.22" y="169.12" width="117.48" height="2.68" style="fill:#fff;"></rect><path d="M194.66,215.35c1.34,0,0-113.52,0-113.52l7.02-5.64h98.1l3.51,3.51v115.65h12.34V86.3H187.36s-1.97,132.47,0,130.5,7.29-1.45,7.29-1.45Z" style="opacity:.1;"></path><g><rect x="39.57" y="103.22" width="135.71" height="128.06" style="fill:#263238;"></rect><rect x="39.57" y="103.22" width="135.71" height="128.06" style="fill:#fff; opacity:.5;"></rect><polygon points="173.31 103.22 36.89 103.22 43.51 91.28 173.31 91.28 173.31 103.22" style="fill:#263238;"></polygon><rect x="39.57" y="181.37" width="133.74" height="1.59" rx=".76" ry=".76" style="fill:#fff;"></rect><rect x="39.72" y="182.17" width="135.71" height="49.11" style="fill:#fff; opacity:.3;"></rect><g><g><rect x="58.49" y="115.08" width="10.66" height="21.5" style="fill:#467B65;"></rect><path d="M69.15,118.61l-10.66,8.97s0,5.37,0,5.33,10.66-8.39,10.66-8.35,0-5.95,0-5.95Z" style="fill:#fff; opacity:.2;"></path></g><g><rect x="79.87" y="115.08" width="10.66" height="21.5" style="fill:#467B65;"></rect><rect x="79.87" y="115.08" width="10.66" height="21.5" style="fill:#fff; opacity:.4;"></rect><path d="M90.54,118.61l-10.66,8.97s0,5.37,0,5.33,10.66-8.39,10.66-8.35,0-5.95,0-5.95Z" style="fill:#fff; opacity:.2;"></path></g><g><rect x="101.26" y="115.08" width="10.66" height="21.5" style="fill:#467B65;"></rect><rect x="101.26" y="115.08" width="10.66" height="21.5" style="fill:#fff; opacity:.4;"></rect><path d="M111.92,118.61l-10.66,8.97s0,5.37,0,5.33,10.66-8.39,10.66-8.35,0-5.95,0-5.95Z" style="fill:#fff; opacity:.2;"></path></g><g><rect x="122.64" y="115.08" width="10.66" height="21.5" style="fill:#467B65;"></rect><rect x="122.64" y="115.08" width="10.66" height="21.5" style="fill:#fff; opacity:.4;"></rect><path d="M133.3,118.61l-10.66,8.97s0,5.37,0,5.33,10.66-8.39,10.66-8.35,0-5.95,0-5.95Z" style="fill:#fff; opacity:.2;"></path></g><rect x="57.25" y="136.54" width="13.76" height="1.58" style="fill:#fff;"></rect><rect x="78.45" y="136.54" width="13.76" height="1.58" style="fill:#fff;"></rect><rect x="99.65" y="136.54" width="13.76" height="1.58" style="fill:#fff;"></rect><rect x="120.85" y="136.54" width="13.76" height="1.58" style="fill:#fff;"></rect><g><rect x="143.66" y="115.08" width="10.66" height="21.5" style="fill:#467B65;"></rect><rect x="143.66" y="115.08" width="10.66" height="21.5" style="fill:#fff; opacity:.4;"></rect><path d="M154.32,118.61l-10.66,8.97s0,5.37,0,5.33,10.66-8.39,10.66-8.35,0-5.95,0-5.95Z" style="fill:#fff; opacity:.2;"></path></g><rect x="141.87" y="136.54" width="13.76" height="1.58" style="fill:#fff;"></rect><rect x="58.49" y="115.08" width="10.66" height="21.5" style="fill:#fff; opacity:.4;"></rect></g><g><g><rect x="58.49" y="150.42" width="10.66" height="21.5" style="fill:#467B65;"></rect><path d="M69.15,153.95l-10.66,8.97s0,5.37,0,5.33,10.66-8.39,10.66-8.35,0-5.95,0-5.95Z" style="fill:#fff; opacity:.2;"></path></g><g><rect x="79.87" y="150.42" width="10.66" height="21.5" style="fill:#467B65;"></rect><rect x="79.87" y="150.42" width="10.66" height="21.5" style="fill:#fff; opacity:.4;"></rect><path d="M90.54,153.95l-10.66,8.97s0,5.37,0,5.33,10.66-8.39,10.66-8.35,0-5.95,0-5.95Z" style="fill:#fff; opacity:.2;"></path></g><g><rect x="101.26" y="150.42" width="10.66" height="21.5" style="fill:#467B65;"></rect><rect x="101.26" y="150.42" width="10.66" height="21.5" style="fill:#fff; opacity:.4;"></rect><path d="M111.92,153.95l-10.66,8.97s0,5.37,0,5.33,10.66-8.39,10.66-8.35,0-5.95,0-5.95Z" style="fill:#fff; opacity:.2;"></path></g><g><rect x="122.64" y="150.42" width="10.66" height="21.5" style="fill:#467B65;"></rect><rect x="122.64" y="150.42" width="10.66" height="21.5" style="fill:#fff; opacity:.4;"></rect><path d="M133.3,153.95l-10.66,8.97s0,5.37,0,5.33,10.66-8.39,10.66-8.35,0-5.95,0-5.95Z" style="fill:#fff; opacity:.2;"></path></g><rect x="57.25" y="171.88" width="13.76" height="1.58" style="fill:#fff;"></rect><rect x="78.45" y="171.88" width="13.76" height="1.58" style="fill:#fff;"></rect><rect x="99.65" y="171.88" width="13.76" height="1.58" style="fill:#fff;"></rect><rect x="120.85" y="171.88" width="13.76" height="1.58" style="fill:#fff;"></rect><g><rect x="143.66" y="150.42" width="10.66" height="21.5" style="fill:#467B65;"></rect><rect x="143.66" y="150.42" width="10.66" height="21.5" style="fill:#fff; opacity:.4;"></rect><path d="M154.32,153.95l-10.66,8.97s0,5.37,0,5.33,10.66-8.39,10.66-8.35,0-5.95,0-5.95Z" style="fill:#fff; opacity:.2;"></path></g><rect x="141.87" y="171.88" width="13.76" height="1.58" style="fill:#fff;"></rect><rect x="58.49" y="150.42" width="10.66" height="21.5" style="fill:#fff; opacity:.4;"></rect></g><g><g><rect x="58.49" y="193.76" width="10.66" height="21.5" style="fill:#467B65;"></rect><path d="M69.15,197.29l-10.66,8.97s0,5.37,0,5.33,10.66-8.39,10.66-8.35,0-5.95,0-5.95Z" style="fill:#fff; opacity:.2;"></path></g><g><rect x="79.87" y="193.76" width="10.66" height="21.5" style="fill:#467B65;"></rect><rect x="79.87" y="193.76" width="10.66" height="21.5" style="fill:#fff; opacity:.4;"></rect><path d="M90.54,197.29l-10.66,8.97s0,5.37,0,5.33,10.66-8.39,10.66-8.35,0-5.95,0-5.95Z" style="fill:#fff; opacity:.2;"></path></g><g><rect x="101.26" y="193.76" width="10.66" height="21.5" style="fill:#467B65;"></rect><rect x="101.26" y="193.76" width="10.66" height="21.5" style="fill:#fff; opacity:.4;"></rect><path d="M111.92,197.29l-10.66,8.97s0,5.37,0,5.33,10.66-8.39,10.66-8.35,0-5.95,0-5.95Z" style="fill:#fff; opacity:.2;"></path></g><g><rect x="122.64" y="193.76" width="10.66" height="21.5" style="fill:#467B65;"></rect><rect x="122.64" y="193.76" width="10.66" height="21.5" style="fill:#fff; opacity:.4;"></rect><path d="M133.3,197.29l-10.66,8.97s0,5.37,0,5.33,10.66-8.39,10.66-8.35,0-5.95,0-5.95Z" style="fill:#fff; opacity:.2;"></path></g><rect x="57.25" y="215.21" width="13.76" height="1.58" style="fill:#fff;"></rect><rect x="78.45" y="215.21" width="13.76" height="1.58" style="fill:#fff;"></rect><rect x="99.65" y="215.21" width="13.76" height="1.58" style="fill:#fff;"></rect><rect x="120.85" y="215.21" width="13.76" height="1.58" style="fill:#fff;"></rect><g><rect x="143.66" y="193.76" width="10.66" height="21.5" style="fill:#467B65;"></rect><rect x="143.66" y="193.76" width="10.66" height="21.5" style="fill:#fff; opacity:.4;"></rect><path d="M154.32,197.29l-10.66,8.97s0,5.37,0,5.33,10.66-8.39,10.66-8.35,0-5.95,0-5.95Z" style="fill:#fff; opacity:.2;"></path></g><rect x="141.87" y="215.21" width="13.76" height="1.58" style="fill:#fff;"></rect><rect x="58.49" y="193.76" width="10.66" height="21.5" style="fill:#fff; opacity:.4;"></rect></g><polygon points="173.31 103.22 36.89 103.22 43.51 91.28 173.31 91.28 173.31 103.22" style="fill:#fff; opacity:.3;"></polygon><rect x="39.57" y="103.22" width="135.71" height="1.79" style="opacity:.2;"></rect></g><g><rect x="321.18" y="102.62" width="135.71" height="128.06" transform="translate(778.07 333.29) rotate(180)" style="fill:#263238;"></rect><rect x="321.18" y="102.62" width="135.71" height="128.06" transform="translate(778.07 333.29) rotate(180)" style="fill:#fff; opacity:.5;"></rect><polygon points="323.15 102.62 459.57 102.62 452.95 90.68 323.15 90.68 323.15 102.62" style="fill:#263238;"></polygon><rect x="323.15" y="180.77" width="133.74" height="1.59" rx=".76" ry=".76" transform="translate(780.04 363.14) rotate(180)" style="fill:#fff;"></rect><rect x="321.04" y="181.57" width="135.71" height="49.11" transform="translate(777.78 412.24) rotate(180)" style="fill:#fff; opacity:.3;"></rect><g><g><rect x="427.31" y="114.48" width="10.66" height="21.5" transform="translate(865.28 250.46) rotate(180)" style="fill:#467B65;"></rect><path d="M427.31,118.01l10.66,8.97s0,5.37,0,5.33-10.66-8.39-10.66-8.35,0-5.95,0-5.95Z" style="fill:#fff; opacity:.2;"></path></g><g><rect x="405.93" y="114.48" width="10.66" height="21.5" transform="translate(822.51 250.46) rotate(180)" style="fill:#467B65;"></rect><rect x="405.93" y="114.48" width="10.66" height="21.5" transform="translate(822.51 250.46) rotate(180)" style="fill:#fff; opacity:.4;"></rect><path d="M405.93,118.01l10.66,8.97s0,5.37,0,5.33-10.66-8.39-10.66-8.35,0-5.95,0-5.95Z" style="fill:#fff; opacity:.2;"></path></g><g><rect x="384.54" y="114.48" width="10.66" height="21.5" transform="translate(779.75 250.46) rotate(180)" style="fill:#467B65;"></rect><rect x="384.54" y="114.48" width="10.66" height="21.5" transform="translate(779.75 250.46) rotate(180)" style="fill:#fff; opacity:.4;"></rect><path d="M384.54,118.01l10.66,8.97s0,5.37,0,5.33-10.66-8.39-10.66-8.35,0-5.95,0-5.95Z" style="fill:#fff; opacity:.2;"></path></g><g><rect x="363.16" y="114.48" width="10.66" height="21.5" transform="translate(736.99 250.46) rotate(180)" style="fill:#467B65;"></rect><rect x="363.16" y="114.48" width="10.66" height="21.5" transform="translate(736.99 250.46) rotate(180)" style="fill:#fff; opacity:.4;"></rect><path d="M363.16,118.01l10.66,8.97s0,5.37,0,5.33-10.66-8.39-10.66-8.35,0-5.95,0-5.95Z" style="fill:#fff; opacity:.2;"></path></g><rect x="425.45" y="135.94" width="13.76" height="1.58" transform="translate(864.66 273.45) rotate(180)" style="fill:#fff;"></rect><rect x="404.25" y="135.94" width="13.76" height="1.58" transform="translate(822.26 273.45) rotate(180)" style="fill:#fff;"></rect><rect x="383.05" y="135.94" width="13.76" height="1.58" transform="translate(779.86 273.45) rotate(180)" style="fill:#fff;"></rect><rect x="361.85" y="135.94" width="13.76" height="1.58" transform="translate(737.46 273.45) rotate(180)" style="fill:#fff;"></rect><g><rect x="342.14" y="114.48" width="10.66" height="21.5" transform="translate(694.94 250.46) rotate(180)" style="fill:#467B65;"></rect><rect x="342.14" y="114.48" width="10.66" height="21.5" transform="translate(694.94 250.46) rotate(180)" style="fill:#fff; opacity:.4;"></rect><path d="M342.14,118.01l10.66,8.97s0,5.37,0,5.33-10.66-8.39-10.66-8.35,0-5.95,0-5.95Z" style="fill:#fff; opacity:.2;"></path></g><rect x="340.83" y="135.94" width="13.76" height="1.58" transform="translate(695.42 273.45) rotate(180)" style="fill:#fff;"></rect><rect x="427.31" y="114.48" width="10.66" height="21.5" transform="translate(865.28 250.46) rotate(180)" style="fill:#fff; opacity:.4;"></rect></g><g><g><rect x="427.31" y="149.82" width="10.66" height="21.5" transform="translate(865.28 321.14) rotate(180)" style="fill:#467B65;"></rect><path d="M427.31,153.35l10.66,8.97s0,5.37,0,5.33-10.66-8.39-10.66-8.35,0-5.95,0-5.95Z" style="fill:#fff; opacity:.2;"></path></g><g><rect x="405.93" y="149.82" width="10.66" height="21.5" transform="translate(822.51 321.14) rotate(180)" style="fill:#467B65;"></rect><rect x="405.93" y="149.82" width="10.66" height="21.5" transform="translate(822.51 321.14) rotate(180)" style="fill:#fff; opacity:.4;"></rect><path d="M405.93,153.35l10.66,8.97s0,5.37,0,5.33-10.66-8.39-10.66-8.35,0-5.95,0-5.95Z" style="fill:#fff; opacity:.2;"></path></g><g><rect x="384.54" y="149.82" width="10.66" height="21.5" transform="translate(779.75 321.14) rotate(180)" style="fill:#467B65;"></rect><rect x="384.54" y="149.82" width="10.66" height="21.5" transform="translate(779.75 321.14) rotate(180)" style="fill:#fff; opacity:.4;"></rect><path d="M384.54,153.35l10.66,8.97s0,5.37,0,5.33-10.66-8.39-10.66-8.35,0-5.95,0-5.95Z" style="fill:#fff; opacity:.2;"></path></g><g><rect x="363.16" y="149.82" width="10.66" height="21.5" transform="translate(736.99 321.14) rotate(180)" style="fill:#467B65;"></rect><rect x="363.16" y="149.82" width="10.66" height="21.5" transform="translate(736.99 321.14) rotate(180)" style="fill:#fff; opacity:.4;"></rect><path d="M363.16,153.35l10.66,8.97s0,5.37,0,5.33-10.66-8.39-10.66-8.35,0-5.95,0-5.95Z" style="fill:#fff; opacity:.2;"></path></g><rect x="425.45" y="171.28" width="13.76" height="1.58" transform="translate(864.66 344.13) rotate(180)" style="fill:#fff;"></rect><rect x="404.25" y="171.28" width="13.76" height="1.58" transform="translate(822.26 344.13) rotate(180)" style="fill:#fff;"></rect><rect x="383.05" y="171.28" width="13.76" height="1.58" transform="translate(779.86 344.13) rotate(180)" style="fill:#fff;"></rect><rect x="361.85" y="171.28" width="13.76" height="1.58" transform="translate(737.46 344.13) rotate(180)" style="fill:#fff;"></rect><g><rect x="342.14" y="149.82" width="10.66" height="21.5" transform="translate(694.94 321.14) rotate(180)" style="fill:#467B65;"></rect><rect x="342.14" y="149.82" width="10.66" height="21.5" transform="translate(694.94 321.14) rotate(180)" style="fill:#fff; opacity:.4;"></rect><path d="M342.14,153.35l10.66,8.97s0,5.37,0,5.33-10.66-8.39-10.66-8.35,0-5.95,0-5.95Z" style="fill:#fff; opacity:.2;"></path></g><rect x="340.83" y="171.28" width="13.76" height="1.58" transform="translate(695.42 344.13) rotate(180)" style="fill:#fff;"></rect><rect x="427.31" y="149.82" width="10.66" height="21.5" transform="translate(865.28 321.14) rotate(180)" style="fill:#fff; opacity:.4;"></rect></g><g><g><rect x="427.31" y="193.16" width="10.66" height="21.5" transform="translate(865.28 407.81) rotate(180)" style="fill:#467B65;"></rect><path d="M427.31,196.69l10.66,8.97s0,5.37,0,5.33-10.66-8.39-10.66-8.35,0-5.95,0-5.95Z" style="fill:#fff; opacity:.2;"></path></g><g><rect x="405.93" y="193.16" width="10.66" height="21.5" transform="translate(822.51 407.81) rotate(180)" style="fill:#467B65;"></rect><rect x="405.93" y="193.16" width="10.66" height="21.5" transform="translate(822.51 407.81) rotate(180)" style="fill:#fff; opacity:.4;"></rect><path d="M405.93,196.69l10.66,8.97s0,5.37,0,5.33-10.66-8.39-10.66-8.35,0-5.95,0-5.95Z" style="fill:#fff; opacity:.2;"></path></g><g><rect x="384.54" y="193.16" width="10.66" height="21.5" transform="translate(779.75 407.81) rotate(180)" style="fill:#467B65;"></rect><rect x="384.54" y="193.16" width="10.66" height="21.5" transform="translate(779.75 407.81) rotate(180)" style="fill:#fff; opacity:.4;"></rect><path d="M384.54,196.69l10.66,8.97s0,5.37,0,5.33-10.66-8.39-10.66-8.35,0-5.95,0-5.95Z" style="fill:#fff; opacity:.2;"></path></g><g><rect x="363.16" y="193.16" width="10.66" height="21.5" transform="translate(736.99 407.81) rotate(180)" style="fill:#467B65;"></rect><rect x="363.16" y="193.16" width="10.66" height="21.5" transform="translate(736.99 407.81) rotate(180)" style="fill:#fff; opacity:.4;"></rect><path d="M363.16,196.69l10.66,8.97s0,5.37,0,5.33-10.66-8.39-10.66-8.35,0-5.95,0-5.95Z" style="fill:#fff; opacity:.2;"></path></g><rect x="425.45" y="214.61" width="13.76" height="1.58" transform="translate(864.66 430.8) rotate(180)" style="fill:#fff;"></rect><rect x="404.25" y="214.61" width="13.76" height="1.58" transform="translate(822.26 430.8) rotate(180)" style="fill:#fff;"></rect><rect x="383.05" y="214.61" width="13.76" height="1.58" transform="translate(779.86 430.8) rotate(180)" style="fill:#fff;"></rect><rect x="361.85" y="214.61" width="13.76" height="1.58" transform="translate(737.46 430.8) rotate(180)" style="fill:#fff;"></rect><g><rect x="342.14" y="193.16" width="10.66" height="21.5" transform="translate(694.94 407.81) rotate(180)" style="fill:#467B65;"></rect><rect x="342.14" y="193.16" width="10.66" height="21.5" transform="translate(694.94 407.81) rotate(180)" style="fill:#fff; opacity:.4;"></rect><path d="M342.14,196.69l10.66,8.97s0,5.37,0,5.33-10.66-8.39-10.66-8.35,0-5.95,0-5.95Z" style="fill:#fff; opacity:.2;"></path></g><rect x="340.83" y="214.61" width="13.76" height="1.58" transform="translate(695.42 430.8) rotate(180)" style="fill:#fff;"></rect><rect x="427.31" y="193.16" width="10.66" height="21.5" transform="translate(865.28 407.81) rotate(180)" style="fill:#fff; opacity:.4;"></rect></g><polygon points="323.15 102.62 459.57 102.62 452.95 90.68 323.15 90.68 323.15 102.62" style="fill:#fff; opacity:.3;"></polygon><rect x="321.18" y="102.62" width="135.71" height="1.79" transform="translate(778.07 207.03) rotate(180)" style="opacity:.2;"></rect></g><g><g><rect x="208.59" y="113.57" width="11.62" height="30.38" style="fill:#467B65;"></rect><rect x="208.59" y="113.57" width="11.62" height="30.38" style="fill:#fff; opacity:.4;"></rect><path d="M220.21,118.57l-11.62,12.68s0,7.59,0,7.53,11.62-11.86,11.62-11.8,0-8.41,0-8.41Z" style="fill:#fff; opacity:.2;"></path></g><g><rect x="231.89" y="113.57" width="11.62" height="30.38" style="fill:#467B65;"></rect><rect x="231.89" y="113.57" width="11.62" height="30.38" style="fill:#fff; opacity:.4;"></rect><path d="M243.51,118.57l-11.62,12.68s0,7.59,0,7.53,11.62-11.86,11.62-11.8,0-8.41,0-8.41Z" style="fill:#fff; opacity:.2;"></path></g><g><rect x="255.19" y="113.57" width="11.62" height="30.38" style="fill:#467B65;"></rect><rect x="255.19" y="113.57" width="11.62" height="30.38" style="fill:#fff; opacity:.4;"></rect><path d="M266.81,118.57l-11.62,12.68s0,7.59,0,7.53,11.62-11.86,11.62-11.8,0-8.41,0-8.41Z" style="fill:#fff; opacity:.2;"></path></g><g><rect x="278.49" y="113.57" width="11.62" height="30.38" style="fill:#467B65;"></rect><rect x="278.49" y="113.57" width="11.62" height="30.38" style="fill:#fff; opacity:.4;"></rect><path d="M290.11,118.57l-11.62,12.68s0,7.59,0,7.53,11.62-11.86,11.62-11.8,0-8.41,0-8.41Z" style="fill:#fff; opacity:.2;"></path></g><rect x="207.24" y="143.9" width="14.99" height="1.72" style="fill:#fff;"></rect><rect x="230.34" y="143.9" width="14.99" height="1.72" style="fill:#fff;"></rect><rect x="253.45" y="143.9" width="14.99" height="1.72" style="fill:#fff;"></rect><rect x="276.55" y="143.9" width="14.99" height="1.72" style="fill:#fff;"></rect></g><g><g><polygon points="169.24 93.26 169.24 88.4 194.66 88.4 194.66 93.26 189.86 96.19 173.31 96.19 169.24 93.26" style="fill:#263238;"></polygon><rect x="173.31" y="96.19" width="16.55" height="124.49" style="fill:#263238;"></rect></g><g style="opacity:.4;"><polygon points="169.24 93.26 169.24 88.4 194.66 88.4 194.66 93.26 189.86 96.19 173.31 96.19 169.24 93.26" style="fill:#fff;"></polygon><rect x="173.31" y="96.19" width="16.55" height="124.49" style="fill:#fff;"></rect></g><polygon points="169.24 93.26 194.66 93.26 189.86 96.19 173.31 96.19 169.24 93.26" style="opacity:.2;"></polygon><g><rect x="176.53" y="99.36" width="1.41" height="118.14" rx=".67" ry=".67" style="opacity:.2;"></rect><rect x="181.24" y="99.36" width="1.41" height="118.14" rx=".67" ry=".67" style="opacity:.2;"></rect><rect x="185.95" y="99.36" width="1.41" height="118.14" rx=".67" ry=".67" style="opacity:.2;"></rect></g></g><g><g><polygon points="303.62 93.26 303.62 88.4 329.04 88.4 329.04 93.26 324.24 96.19 307.69 96.19 303.62 93.26" style="fill:#263238;"></polygon><rect x="307.69" y="96.19" width="16.55" height="124.49" style="fill:#263238;"></rect></g><g style="opacity:.4;"><polygon points="303.62 93.26 303.62 88.4 329.04 88.4 329.04 93.26 324.24 96.19 307.69 96.19 303.62 93.26" style="fill:#fff;"></polygon><rect x="307.69" y="96.19" width="16.55" height="124.49" style="fill:#fff;"></rect></g><polygon points="303.62 93.26 329.04 93.26 324.24 96.19 307.69 96.19 303.62 93.26" style="opacity:.2;"></polygon><g><rect x="310.91" y="99.36" width="1.41" height="118.14" rx=".67" ry=".67" style="opacity:.2;"></rect><rect x="315.62" y="99.36" width="1.41" height="118.14" rx=".67" ry=".67" style="opacity:.2;"></rect><rect x="320.33" y="99.36" width="1.41" height="118.14" rx=".67" ry=".67" style="opacity:.2;"></rect></g></g><g><rect x="147.94" y="220.68" width="196.71" height="5.33" style="fill:#263238;"></rect><rect x="155.83" y="215.35" width="181.39" height="5.33" style="fill:#263238;"></rect><rect x="140.19" y="225.94" width="210.92" height="5.33" style="fill:#263238;"></rect></g><g><path d="M161.18,78.81c.87,0,88.75-42.06,88.75-42.06l88.17,42.06H161.18Z" style="fill:#263238;"></path><path d="M181.35,74.37c12.68-5.98,33.65-15.97,68.59-32.69l68.54,32.69H181.35Z" style="fill:#fff; opacity:.2;"></path><path d="M161.18,78.81c.87,0,88.75-42.06,88.75-42.06l88.17,42.06H161.18Z" style="fill:#fff; opacity:.3;"></path><g><polygon points="338.11 88.4 162.95 88.4 160.93 88.4 160.93 78.81 338.11 78.81 338.11 88.4" style="fill:#263238;"></polygon><polygon points="338.11 88.4 162.95 88.4 160.93 88.4 160.93 78.81 338.11 78.81 338.11 88.4" style="fill:#fff; opacity:.3;"></polygon></g><rect x="160.93" y="78.81" width="177.18" height="1.17" style="opacity:.2;"></rect><path d="M185.5,72.41c.76-.39,128.49-.17,128.49-.17l4.48,2.14H181.35l4.15-1.96Z" style="opacity:.2;"></path></g><g style="opacity:.3;"><rect x="147.94" y="220.68" width="196.71" height="5.33" style="fill:#fff;"></rect><rect x="155.83" y="215.35" width="181.39" height="5.33" style="fill:#fff;"></rect><rect x="140.19" y="225.94" width="210.92" height="5.33" style="fill:#fff;"></rect></g><rect x="155.83" y="219.46" width="181.39" height="1.22" style="opacity:.2;"></rect><rect x="147.94" y="224.73" width="196.71" height="1.22" style="opacity:.2;"></rect><rect x="140.25" y="230.07" width="210.86" height="1.22" style="opacity:.2;"></rect><g><rect x="209.09" y="179.2" width="83.54" height="36.13" style="fill:#263238;"></rect><rect x="209.09" y="179.2" width="83.54" height="36.13" style="fill:#fff; opacity:.5;"></rect><rect x="211.38" y="181.36" width="16.82" height="33.97" style="fill:#467B65;"></rect><rect x="211.38" y="181.36" width="16.82" height="33.97" style="fill:#fff; opacity:.4;"></rect><rect x="273.27" y="181.36" width="17.48" height="33.97" style="fill:#467B65;"></rect><rect x="230.44" y="181.36" width="19.08" height="33.97" style="fill:#467B65;"></rect><rect x="230.44" y="181.36" width="19.08" height="33.97" style="fill:#fff; opacity:.4;"></rect><rect x="252.06" y="181.36" width="19.08" height="33.97" style="fill:#467B65;"></rect><rect x="273.27" y="181.36" width="17.48" height="33.97" style="fill:#fff; opacity:.4;"></rect><rect x="252.06" y="181.36" width="19.08" height="33.97" style="fill:#fff; opacity:.4;"></rect><rect x="229.89" y="184.64" width="41.44" height="1.15" style="fill:#263238;"></rect><rect x="229.89" y="184.64" width="41.44" height="1.15" style="fill:#fff; opacity:.5;"></rect><path d="M228.2,184.64c0-.11-16.82,12.27-16.82,12.63v8.55l16.82-12.63v-8.54Z" style="fill:#fff; opacity:.2;"></path><polyline points="228.2 197.27 211.38 209.55 211.38 212.04 228.2 199.68 228.2 197.8" style="fill:#fff; opacity:.2;"></polyline><path d="M290.75,184.64c0-.11-17.48,12.27-17.48,12.63v8.55l17.48-12.63v-8.54Z" style="fill:#fff; opacity:.2;"></path><polyline points="290.75 197.27 273.27 209.55 273.27 212.04 290.75 199.68 290.75 197.8" style="fill:#fff; opacity:.2;"></polyline><polygon points="249.52 188.99 230.44 200.21 230.44 207.65 249.52 195.74 249.52 188.99" style="fill:#fff; opacity:.2;"></polygon><polygon points="271.14 193.84 252.06 206.04 252.06 213.48 271.14 201.56 271.14 193.84" style="fill:#fff; opacity:.2;"></polygon><g><rect x="246.56" y="196.65" width="2.95" height="9.17" style="fill:#263238;"></rect><rect x="246.56" y="196.65" width="2.95" height="9.17" style="fill:#fff; opacity:.7;"></rect></g><g><rect x="252.08" y="196.65" width="2.95" height="9.17" style="fill:#263238;"></rect><rect x="252.08" y="196.65" width="2.95" height="9.17" style="fill:#fff; opacity:.7;"></rect></g></g></g></g><g id="freepik--Trees--inject-103"><g id="freepik--freepik--tree-1--inject-2--inject-103"><path d="M103.7,192.43c-.51-.31-1.11-.46-1.71-.43-.37-.45-.07-1.12,.29-1.57s.79-.97,.66-1.54c-.21-.85-1.4-.88-2.25-.71-.32-.51-.31-1.15-.46-1.74s-.66-1.21-1.22-1.13c-.56,.08-.91,.7-1.46,.83-.64,.15-1.2-.42-1.7-.84-.06-.05-.13-.1-.2-.15h0c.11-1.76,1.78-1.48,3.21-1.72,1.12-.18-1.84-3.01,.41-3.92,.44-.12,.82-.39,1.09-.75,.23-.57,.03-1.23-.49-1.56-.51-.31-1.11-.46-1.71-.43-.37-.45-.07-1.12,.29-1.57s.79-.97,.66-1.54c-.21-.85-1.4-.88-2.25-.71-.32-.51-.31-1.15-.46-1.74s-.65-1.21-1.22-1.13c-.56,.08-.91,.7-1.46,.83-.64,.15-1.2-.42-1.7-.84-.5-.42-1.38-.69-1.73-.13-.21,.33-.08,.8-.3,1.13-.37,.56-1.26,.22-1.81-.19-.55-.41-1.44-.77-1.81-.21-.1,.18-.17,.38-.21,.59-.05,.15-.13,.28-.22,.41-.11-.39-.14-.82-.24-1.21-.15-.59-.65-1.21-1.22-1.13-.56,.08-.91,.71-1.46,.83-.64,.15-1.2-.42-1.7-.84-.5-.42-1.38-.69-1.73-.13-.21,.33-.08,.8-.3,1.13-.05,.07-.11,.14-.18,.18-.19-.04-.38-.04-.57-.04-.37-.44-.07-1.11,.29-1.57,.36-.46,.79-.98,.66-1.54-.21-.85-1.4-.88-2.25-.71-.32-.51-.31-1.15-.46-1.74s-.65-1.21-1.22-1.13c-.56,.09-.91,.71-1.46,.84-.64,.15-1.2-.41-1.7-.84-.5-.43-1.38-.69-1.73-.13-.21,.33-.08,.8-.3,1.13-.37,.56-1.26,.21-1.81-.19-.55-.41-1.44-.77-1.82-.21-.1,.19-.17,.38-.21,.59-.26,.75-1.07,1.13-1.71,1.61-.63,.48-1.13,1.44-.6,2.03,.26,.29,.73,.4,.86,.78,.16,.44-.31,.88-.68,1.2-.49,.55-.64,1.32-.38,2.01-.19,.17-.41,.3-.65,.38-.64,.15-1.2-.42-1.7-.84-.5-.42-1.38-.69-1.73-.13-.21,.33-.08,.8-.3,1.13-.37,.56-1.26,.22-1.81-.19-.55-.41-1.44-.77-1.82-.21-.1,.18-.17,.38-.21,.59-.26,.75-1.07,1.13-1.71,1.61s-1.13,1.44-.6,2.03c.25,.29,.69,.41,.84,.75-.44-.18-.95-.13-1.16,.2-.21,.33-.08,.8-.3,1.13-.37,.56-1.26,.22-1.81-.19-.55-.41-1.44-.77-1.81-.21-.1,.19-.17,.38-.21,.59-.26,.75-1.07,1.12-1.71,1.6-.63,.48-1.13,1.44-.6,2.03,.26,.29,.73,.4,.86,.78,.17,.44-.3,.88-.68,1.2-.62,.53-.74,2.11,.09,2.54,.35,.18,.86,.27,.94,.62,.08,.34-.27,.6-.5,.87-.05,.07-.1,.14-.14,.22-.43,.79-.15,1.78,.64,2.22,.2,.09,.44,.17,.51,.38,.03,.15,.01,.31-.05,.46-.08,.29-.11,.59-.08,.88,0,.1,.04,.2,.11,.27,.08,.05,.17,.08,.26,.08,1.19,.05,1.76-.37,2.48,.67,.06,.1,.15,.19,.25,.26,.1,.05,.21,.08,.33,.08,.82,.07,1.34-.44,2.09-.54,1.04-.13,1.26,.4,2.17,.83,1.43,.68,2.13,.26,2.4-.72,.07-.28,.11-.56,.13-.85,0-.43,.18-.84,.5-1.13h.02c.76,.06,1.28-.37,1.95-.51l.42-.05c.79,0,1.06,.47,1.88,.85,.38,.2,.8,.31,1.23,.33,.12,.44-.32,.84-.69,1.15-.62,.53-.73,2.11,.09,2.54,.34,.18,.86,.28,.94,.62,.08,.34-.27,.6-.5,.86-.05,.07-.1,.14-.14,.21-.44,.79-.15,1.78,.64,2.22,.2,.09,.44,.17,.51,.38,.03,.16,.02,.32-.05,.46-.08,.29-.11,.58-.08,.88,0,.1,.04,.2,.11,.28,.08,.05,.17,.08,.26,.07,1.19,.05,1.76-.37,2.48,.67,.06,.11,.15,.2,.25,.26,.1,.05,.21,.08,.33,.08,.82,.07,1.34-.44,2.09-.54,1.04-.13,1.26,.4,2.16,.83,1.44,.67,2.13,.26,2.4-.72,.07-.28,.11-.56,.13-.85,.11-1.76,1.78-1.48,3.21-1.72,.1,0,.19-.07,.23-.16h.09c.82,.07,1.34-.44,2.09-.54,1.04-.13,1.26,.4,2.17,.83,1.43,.68,2.13,.26,2.4-.72,.07-.28,.11-.56,.13-.85,.09-1.37,1.13-1.5,2.25-1.61,.04,.54,.35,1.03,.83,1.28,.2,.09,.44,.17,.51,.38,.03,.15,.01,.31-.05,.46-.08,.29-.11,.58-.08,.88,0,.1,.04,.2,.11,.28,.08,.05,.17,.08,.26,.08,1.19,.05,1.76-.37,2.48,.67,.06,.1,.15,.19,.25,.26,.1,.05,.21,.08,.33,.08,.82,.07,1.34-.44,2.09-.54,1.04-.13,1.26,.4,2.17,.83,1.43,.68,2.13,.26,2.4-.72,.07-.28,.11-.56,.13-.85,.11-1.76,1.78-1.48,3.21-1.72,1.12-.18-1.84-3.01,.41-3.92,.44-.12,.82-.39,1.09-.75,.21-.55,.02-1.16-.46-1.5Z" style="fill:#467B65;"></path><path d="M62.19,202.93c-.43-.26-.92-.38-1.42-.36-.31-.37-.06-.93,.24-1.31,.29-.38,.66-.8,.54-1.28-.17-.71-1.16-.73-1.87-.59-.27-.43-.26-.96-.4-1.45-.14-.49-.52-.99-1.01-.93-.5,.06-.76,.59-1.22,.7-.53,.13-1-.35-1.42-.7-.42-.35-1.15-.58-1.44-.11-.17,.28-.07,.67-.25,.95-.31,.48-1.05,.18-1.51-.16s-1.19-.64-1.51-.18c-.08,.15-.14,.32-.18,.49-.21,.63-.89,.94-1.42,1.34s-.95,1.19-.5,1.69c.22,.24,.6,.34,.72,.65,.14,.4-.26,.73-.57,.99-.52,.44-.61,1.76,.07,2.12,.29,.15,.71,.2,.8,.52,.08,.32-.22,.51-.4,.72-.46,.59-.35,1.45,.24,1.91,.06,.04,.11,.08,.18,.12,.16,.08,.37,.14,.43,.32,.03,.13,.02,.27-.04,.4-.07,.24-.09,.49-.06,.73,0,.09,.03,.17,.09,.23,.06,.05,.14,.07,.22,.06,.99,.04,1.46-.31,2.07,.55,.05,.09,.12,.16,.21,.22,.09,.04,.18,.07,.27,.07,.68,.06,1.12-.37,1.75-.45,.86-.11,1.04,.33,1.8,.69,1.19,.56,1.78,.21,1.99-.6,.06-.23,.09-.47,.11-.7,.09-1.47,1.49-1.24,2.68-1.44,.93-.16-1.53-2.5,.34-3.26,.37-.1,.69-.32,.91-.63,.2-.48,.02-1.04-.42-1.31Z" style="fill:#467B65;"></path><path d="M103.7,192.43c-.51-.31-1.11-.46-1.71-.43-.37-.45-.07-1.12,.29-1.57s.79-.97,.66-1.54c-.21-.85-1.4-.88-2.25-.71-.32-.51-.31-1.15-.46-1.74s-.66-1.21-1.22-1.13c-.56,.08-.91,.7-1.46,.83-.64,.15-1.2-.42-1.7-.84-.06-.05-.13-.1-.2-.15h0c.11-1.76,1.78-1.48,3.21-1.72,1.12-.18-1.84-3.01,.41-3.92,.44-.12,.82-.39,1.09-.75,.23-.57,.03-1.23-.49-1.56-.51-.31-1.11-.46-1.71-.43-.37-.45-.07-1.12,.29-1.57s.79-.97,.66-1.54c-.21-.85-1.4-.88-2.25-.71-.32-.51-.31-1.15-.46-1.74s-.65-1.21-1.22-1.13c-.56,.08-.91,.7-1.46,.83-.64,.15-1.2-.42-1.7-.84-.5-.42-1.38-.69-1.73-.13-.21,.33-.08,.8-.3,1.13-.37,.56-1.26,.22-1.81-.19-.55-.41-1.44-.77-1.81-.21-.1,.18-.17,.38-.21,.59-.05,.15-.13,.28-.22,.41-.11-.39-.14-.82-.24-1.21-.15-.59-.65-1.21-1.22-1.13-.56,.08-.91,.71-1.46,.83-.64,.15-1.2-.42-1.7-.84-.5-.42-1.38-.69-1.73-.13-.21,.33-.08,.8-.3,1.13-.05,.07-.11,.14-.18,.18-.19-.04-.38-.04-.57-.04-.37-.44-.07-1.11,.29-1.57,.36-.46,.79-.98,.66-1.54-.21-.85-1.4-.88-2.25-.71-.32-.51-.31-1.15-.46-1.74s-.65-1.21-1.22-1.13c-.56,.09-.91,.71-1.46,.84-.64,.15-1.2-.41-1.7-.84-.5-.43-1.38-.69-1.73-.13-.21,.33-.08,.8-.3,1.13-.37,.56-1.26,.21-1.81-.19-.55-.41-1.44-.77-1.82-.21-.1,.19-.17,.38-.21,.59-.26,.75-1.07,1.13-1.71,1.61-.63,.48-1.13,1.44-.6,2.03,.26,.29,.73,.4,.86,.78,.16,.44-.31,.88-.68,1.2-.49,.55-.64,1.32-.38,2.01-.19,.17-.41,.3-.65,.38-.64,.15-1.2-.42-1.7-.84-.5-.42-1.38-.69-1.73-.13-.21,.33-.08,.8-.3,1.13-.37,.56-1.26,.22-1.81-.19-.55-.41-1.44-.77-1.82-.21-.1,.18-.17,.38-.21,.59-.26,.75-1.07,1.13-1.71,1.61s-1.13,1.44-.6,2.03c.25,.29,.69,.41,.84,.75-.44-.18-.95-.13-1.16,.2-.21,.33-.08,.8-.3,1.13-.37,.56-1.26,.22-1.81-.19-.55-.41-1.44-.77-1.81-.21-.1,.19-.17,.38-.21,.59-.26,.75-1.07,1.12-1.71,1.6-.63,.48-1.13,1.44-.6,2.03,.26,.29,.73,.4,.86,.78,.17,.44-.3,.88-.68,1.2-.62,.53-.74,2.11,.09,2.54,.35,.18,.86,.27,.94,.62,.08,.34-.27,.6-.5,.87-.05,.07-.1,.14-.14,.22-.43,.79-.15,1.78,.64,2.22,.2,.09,.44,.17,.51,.38,.03,.15,.01,.31-.05,.46-.08,.29-.11,.59-.08,.88,0,.1,.04,.2,.11,.27,.08,.05,.17,.08,.26,.08,1.19,.05,1.76-.37,2.48,.67,.06,.1,.15,.19,.25,.26,.1,.05,.21,.08,.33,.08,.82,.07,1.34-.44,2.09-.54,1.04-.13,1.26,.4,2.17,.83,1.43,.68,2.13,.26,2.4-.72,.07-.28,.11-.56,.13-.85,0-.43,.18-.84,.5-1.13h.02c.76,.06,1.28-.37,1.95-.51l.42-.05c.79,0,1.06,.47,1.88,.85,.38,.2,.8,.31,1.23,.33,.12,.44-.32,.84-.69,1.15-.62,.53-.73,2.11,.09,2.54,.34,.18,.86,.28,.94,.62,.08,.34-.27,.6-.5,.86-.05,.07-.1,.14-.14,.21-.44,.79-.15,1.78,.64,2.22,.2,.09,.44,.17,.51,.38,.03,.16,.02,.32-.05,.46-.08,.29-.11,.58-.08,.88,0,.1,.04,.2,.11,.28,.08,.05,.17,.08,.26,.07,1.19,.05,1.76-.37,2.48,.67,.06,.11,.15,.2,.25,.26,.1,.05,.21,.08,.33,.08,.82,.07,1.34-.44,2.09-.54,1.04-.13,1.26,.4,2.16,.83,1.44,.67,2.13,.26,2.4-.72,.07-.28,.11-.56,.13-.85,.11-1.76,1.78-1.48,3.21-1.72,.1,0,.19-.07,.23-.16h.09c.82,.07,1.34-.44,2.09-.54,1.04-.13,1.26,.4,2.17,.83,1.43,.68,2.13,.26,2.4-.72,.07-.28,.11-.56,.13-.85,.09-1.37,1.13-1.5,2.25-1.61,.04,.54,.35,1.03,.83,1.28,.2,.09,.44,.17,.51,.38,.03,.15,.01,.31-.05,.46-.08,.29-.11,.58-.08,.88,0,.1,.04,.2,.11,.28,.08,.05,.17,.08,.26,.08,1.19,.05,1.76-.37,2.48,.67,.06,.1,.15,.19,.25,.26,.1,.05,.21,.08,.33,.08,.82,.07,1.34-.44,2.09-.54,1.04-.13,1.26,.4,2.17,.83,1.43,.68,2.13,.26,2.4-.72,.07-.28,.11-.56,.13-.85,.11-1.76,1.78-1.48,3.21-1.72,1.12-.18-1.84-3.01,.41-3.92,.44-.12,.82-.39,1.09-.75,.21-.55,.02-1.16-.46-1.5Z" style="opacity:.2;"></path><g style="opacity:.2;"><path d="M62.19,202.93c-.43-.26-.92-.38-1.42-.36-.31-.37-.06-.93,.24-1.31,.29-.38,.66-.8,.54-1.28-.17-.71-1.16-.73-1.87-.59-.27-.43-.26-.96-.4-1.45-.14-.49-.52-.99-1.01-.93-.5,.06-.76,.59-1.22,.7-.53,.13-1-.35-1.42-.7-.42-.35-1.15-.58-1.44-.11-.17,.28-.07,.67-.25,.95-.31,.48-1.05,.18-1.51-.16s-1.19-.64-1.51-.18c-.08,.15-.14,.32-.18,.49-.21,.63-.89,.94-1.42,1.34s-.95,1.19-.5,1.69c.22,.24,.6,.34,.72,.65,.14,.4-.26,.73-.57,.99-.52,.44-.61,1.76,.07,2.12,.29,.15,.71,.2,.8,.52,.08,.32-.22,.51-.4,.72-.46,.59-.35,1.45,.24,1.91,.06,.04,.11,.08,.18,.12,.16,.08,.37,.14,.43,.32,.03,.13,.02,.27-.04,.4-.07,.24-.09,.49-.06,.73,0,.09,.03,.17,.09,.23,.06,.05,.14,.07,.22,.06,.99,.04,1.46-.31,2.07,.55,.05,.09,.12,.16,.21,.22,.09,.04,.18,.07,.27,.07,.68,.06,1.12-.37,1.75-.45,.86-.11,1.04,.33,1.8,.69,1.19,.56,1.78,.21,1.99-.6,.06-.23,.09-.47,.11-.7,.09-1.47,1.49-1.24,2.68-1.44,.93-.16-1.53-2.5,.34-3.26,.37-.1,.69-.32,.91-.63,.2-.48,.02-1.04-.42-1.31Z"></path></g><path d="M80.38,194.82l1.53-4.86,2.98-3.84-.51-.43-2.81,3.07-.5-4.86h-.81s.67,5.77-.29,7.89c0,0-3.5,8.9-5.63,10.83-.12,.11-.23,.24-.31,.38-.64-1.64-1.47-3.19-2.47-4.64,.84-2.15,2.65-6.88,3.26-9.41,.48-1.97,.84-3.96,1.08-5.97l-.7-.08s-1.98,9.35-5.25,13.6c-.97-.89-2.07-1.63-3.26-2.19-.27-1.31-.38-3.6,.49-7.17l-.69-.18s-1.32,3.02-1.2,6.64c-.49-.25-.97-.53-1.42-.84-3.15-2.22-5.37-6.22-5.37-6.22l-.65,.63s2.69,5.91,6.44,7.88c3.75,1.97,6.18,6.78,6.37,8.04,.05,.36,.49,3.22-.11,8.22-3.99-1.7-11.9-6.39-12.42-6.82l-.92,1.24,12.79,9.15c.2,12.2-.7,15.71-.67,18.45h7.45c-.18-3.79-1.77-8.85-1.08-23.74,.06-.37,.12-.78,.18-1.27,.58-4.57,4.05-10.8,5.69-12.58,1.77-1.9,3.73-3.41,3.73-3.41l-.45-.97-4.47,3.44Z" style="fill:#263238;"></path></g><g id="freepik--freepik--tree-1--inject-2-2--inject-103"><path d="M465.29,192.43c-.51-.31-1.11-.46-1.71-.43-.37-.45-.07-1.12,.29-1.57s.79-.97,.66-1.54c-.21-.85-1.4-.88-2.25-.71-.32-.51-.31-1.15-.46-1.74s-.66-1.21-1.22-1.13c-.56,.08-.91,.7-1.46,.83-.64,.15-1.2-.42-1.7-.84-.06-.05-.13-.1-.2-.15h0c.11-1.76,1.78-1.48,3.21-1.72,1.12-.18-1.84-3.01,.41-3.92,.44-.12,.82-.39,1.09-.75,.23-.57,.03-1.23-.49-1.56-.51-.31-1.11-.46-1.71-.43-.37-.45-.07-1.12,.29-1.57s.79-.97,.66-1.54c-.21-.85-1.4-.88-2.25-.71-.32-.51-.31-1.15-.46-1.74-.15-.59-.65-1.21-1.22-1.13-.56,.08-.91,.7-1.46,.83-.64,.15-1.2-.42-1.7-.84-.5-.42-1.38-.69-1.73-.13-.21,.33-.08,.8-.3,1.13-.37,.56-1.26,.22-1.81-.19-.55-.41-1.44-.77-1.81-.21-.1,.18-.17,.38-.21,.59-.05,.15-.13,.28-.22,.41-.11-.39-.14-.82-.24-1.21-.15-.59-.65-1.21-1.22-1.13-.56,.08-.91,.71-1.46,.83-.64,.15-1.2-.42-1.7-.84-.5-.42-1.38-.69-1.73-.13-.21,.33-.08,.8-.3,1.13-.05,.07-.11,.14-.18,.18-.19-.04-.38-.04-.57-.04-.37-.44-.07-1.11,.29-1.57,.36-.46,.79-.98,.66-1.54-.21-.85-1.4-.88-2.25-.71-.32-.51-.31-1.15-.46-1.74s-.65-1.21-1.22-1.13c-.56,.09-.91,.71-1.46,.84-.64,.15-1.2-.41-1.7-.84-.5-.43-1.38-.69-1.73-.13-.21,.33-.08,.8-.3,1.13-.37,.56-1.26,.21-1.81-.19-.55-.41-1.44-.77-1.82-.21-.1,.19-.17,.38-.21,.59-.26,.75-1.07,1.13-1.71,1.61-.63,.48-1.13,1.44-.6,2.03,.26,.29,.73,.4,.86,.78,.16,.44-.31,.88-.68,1.2-.49,.55-.64,1.32-.38,2.01-.19,.17-.41,.3-.65,.38-.64,.15-1.2-.42-1.7-.84-.5-.42-1.38-.69-1.73-.13-.21,.33-.08,.8-.3,1.13-.37,.56-1.26,.22-1.81-.19-.55-.41-1.44-.77-1.82-.21-.1,.18-.17,.38-.21,.59-.26,.75-1.07,1.13-1.71,1.61-.63,.48-1.13,1.44-.6,2.03,.25,.29,.69,.41,.84,.75-.44-.18-.95-.13-1.16,.2-.21,.33-.08,.8-.3,1.13-.37,.56-1.26,.22-1.81-.19-.55-.41-1.44-.77-1.81-.21-.1,.19-.17,.38-.21,.59-.26,.75-1.07,1.12-1.71,1.6-.63,.48-1.13,1.44-.6,2.03,.26,.29,.73,.4,.86,.78,.17,.44-.3,.88-.68,1.2-.62,.53-.74,2.11,.09,2.54,.35,.18,.86,.27,.94,.62,.08,.34-.27,.6-.5,.87-.05,.07-.1,.14-.14,.22-.43,.79-.15,1.78,.64,2.22,.2,.09,.44,.17,.51,.38,.03,.15,.01,.31-.05,.46-.08,.29-.11,.59-.08,.88,0,.1,.04,.2,.11,.27,.08,.05,.17,.08,.26,.08,1.19,.05,1.76-.37,2.48,.67,.06,.1,.15,.19,.25,.26,.1,.05,.21,.08,.33,.08,.82,.07,1.34-.44,2.09-.54,1.04-.13,1.26,.4,2.17,.83,1.43,.68,2.13,.26,2.4-.72,.07-.28,.11-.56,.13-.85,0-.43,.18-.84,.5-1.13h.02c.76,.06,1.28-.37,1.95-.51l.42-.05c.79,0,1.06,.47,1.88,.85,.38,.2,.8,.31,1.22,.33,.12,.44-.32,.84-.69,1.15-.62,.53-.73,2.11,.09,2.54,.34,.18,.86,.28,.94,.62,.08,.34-.27,.6-.5,.86-.05,.07-.1,.14-.14,.21-.44,.79-.15,1.78,.64,2.22,.2,.09,.44,.17,.51,.38,.03,.16,.02,.32-.05,.46-.08,.29-.11,.58-.08,.88,0,.1,.04,.2,.11,.28,.08,.05,.17,.08,.26,.07,1.19,.05,1.76-.37,2.48,.67,.06,.11,.15,.2,.25,.26,.1,.05,.21,.08,.33,.08,.82,.07,1.34-.44,2.09-.54,1.04-.13,1.26,.4,2.16,.83,1.44,.67,2.13,.26,2.4-.72,.07-.28,.11-.56,.13-.85,.11-1.76,1.78-1.48,3.21-1.72,.1,0,.19-.07,.23-.16h.09c.82,.07,1.34-.44,2.09-.54,1.04-.13,1.26,.4,2.17,.83,1.43,.68,2.13,.26,2.4-.72,.07-.28,.11-.56,.13-.85,.09-1.37,1.13-1.5,2.25-1.61,.04,.54,.35,1.03,.83,1.28,.2,.09,.44,.17,.51,.38,.03,.15,.01,.31-.05,.46-.08,.29-.11,.58-.08,.88,0,.1,.04,.2,.11,.28,.08,.05,.17,.08,.26,.08,1.19,.05,1.76-.37,2.48,.67,.06,.1,.15,.19,.25,.26,.1,.05,.21,.08,.33,.08,.82,.07,1.34-.44,2.09-.54,1.04-.13,1.26,.4,2.17,.83,1.43,.68,2.13,.26,2.4-.72,.07-.28,.11-.56,.13-.85,.11-1.76,1.78-1.48,3.21-1.72,1.12-.18-1.84-3.01,.41-3.92,.44-.12,.82-.39,1.09-.75,.21-.55,.02-1.16-.46-1.5Z" style="fill:#467B65;"></path><path d="M423.78,202.93c-.43-.26-.92-.38-1.42-.36-.31-.37-.06-.93,.24-1.31,.29-.38,.66-.8,.54-1.28-.17-.71-1.16-.73-1.87-.59-.27-.43-.26-.96-.4-1.45-.14-.49-.52-.99-1.01-.93-.5,.06-.76,.59-1.22,.7-.53,.13-1-.35-1.42-.7-.42-.35-1.15-.58-1.44-.11-.17,.28-.07,.67-.25,.95-.31,.48-1.05,.18-1.51-.16s-1.19-.64-1.51-.18c-.08,.15-.14,.32-.18,.49-.21,.63-.89,.94-1.42,1.34-.53,.4-.95,1.19-.5,1.69,.22,.24,.6,.34,.72,.65,.14,.4-.26,.73-.57,.99-.52,.44-.61,1.76,.07,2.12,.29,.15,.71,.2,.8,.52,.08,.32-.22,.51-.4,.72-.46,.59-.35,1.45,.24,1.91,.06,.04,.11,.08,.18,.12,.16,.08,.37,.14,.43,.32,.03,.13,.02,.27-.04,.4-.07,.24-.09,.49-.06,.73,0,.09,.03,.17,.09,.23,.06,.05,.14,.07,.22,.06,.99,.04,1.46-.31,2.07,.55,.05,.09,.12,.16,.21,.22,.09,.04,.18,.07,.27,.07,.68,.06,1.12-.37,1.75-.45,.86-.11,1.04,.33,1.8,.69,1.19,.56,1.78,.21,1.99-.6,.06-.23,.09-.47,.11-.7,.09-1.47,1.49-1.24,2.68-1.44,.93-.16-1.53-2.5,.34-3.26,.37-.1,.69-.32,.91-.63,.2-.48,.02-1.04-.42-1.31Z" style="fill:#467B65;"></path><path d="M465.29,192.43c-.51-.31-1.11-.46-1.71-.43-.37-.45-.07-1.12,.29-1.57s.79-.97,.66-1.54c-.21-.85-1.4-.88-2.25-.71-.32-.51-.31-1.15-.46-1.74s-.66-1.21-1.22-1.13c-.56,.08-.91,.7-1.46,.83-.64,.15-1.2-.42-1.7-.84-.06-.05-.13-.1-.2-.15h0c.11-1.76,1.78-1.48,3.21-1.72,1.12-.18-1.84-3.01,.41-3.92,.44-.12,.82-.39,1.09-.75,.23-.57,.03-1.23-.49-1.56-.51-.31-1.11-.46-1.71-.43-.37-.45-.07-1.12,.29-1.57s.79-.97,.66-1.54c-.21-.85-1.4-.88-2.25-.71-.32-.51-.31-1.15-.46-1.74-.15-.59-.65-1.21-1.22-1.13-.56,.08-.91,.7-1.46,.83-.64,.15-1.2-.42-1.7-.84-.5-.42-1.38-.69-1.73-.13-.21,.33-.08,.8-.3,1.13-.37,.56-1.26,.22-1.81-.19-.55-.41-1.44-.77-1.81-.21-.1,.18-.17,.38-.21,.59-.05,.15-.13,.28-.22,.41-.11-.39-.14-.82-.24-1.21-.15-.59-.65-1.21-1.22-1.13-.56,.08-.91,.71-1.46,.83-.64,.15-1.2-.42-1.7-.84-.5-.42-1.38-.69-1.73-.13-.21,.33-.08,.8-.3,1.13-.05,.07-.11,.14-.18,.18-.19-.04-.38-.04-.57-.04-.37-.44-.07-1.11,.29-1.57,.36-.46,.79-.98,.66-1.54-.21-.85-1.4-.88-2.25-.71-.32-.51-.31-1.15-.46-1.74s-.65-1.21-1.22-1.13c-.56,.09-.91,.71-1.46,.84-.64,.15-1.2-.41-1.7-.84-.5-.43-1.38-.69-1.73-.13-.21,.33-.08,.8-.3,1.13-.37,.56-1.26,.21-1.81-.19-.55-.41-1.44-.77-1.82-.21-.1,.19-.17,.38-.21,.59-.26,.75-1.07,1.13-1.71,1.61-.63,.48-1.13,1.44-.6,2.03,.26,.29,.73,.4,.86,.78,.16,.44-.31,.88-.68,1.2-.49,.55-.64,1.32-.38,2.01-.19,.17-.41,.3-.65,.38-.64,.15-1.2-.42-1.7-.84-.5-.42-1.38-.69-1.73-.13-.21,.33-.08,.8-.3,1.13-.37,.56-1.26,.22-1.81-.19-.55-.41-1.44-.77-1.82-.21-.1,.18-.17,.38-.21,.59-.26,.75-1.07,1.13-1.71,1.61-.63,.48-1.13,1.44-.6,2.03,.25,.29,.69,.41,.84,.75-.44-.18-.95-.13-1.16,.2-.21,.33-.08,.8-.3,1.13-.37,.56-1.26,.22-1.81-.19-.55-.41-1.44-.77-1.81-.21-.1,.19-.17,.38-.21,.59-.26,.75-1.07,1.12-1.71,1.6-.63,.48-1.13,1.44-.6,2.03,.26,.29,.73,.4,.86,.78,.17,.44-.3,.88-.68,1.2-.62,.53-.74,2.11,.09,2.54,.35,.18,.86,.27,.94,.62,.08,.34-.27,.6-.5,.87-.05,.07-.1,.14-.14,.22-.43,.79-.15,1.78,.64,2.22,.2,.09,.44,.17,.51,.38,.03,.15,.01,.31-.05,.46-.08,.29-.11,.59-.08,.88,0,.1,.04,.2,.11,.27,.08,.05,.17,.08,.26,.08,1.19,.05,1.76-.37,2.48,.67,.06,.1,.15,.19,.25,.26,.1,.05,.21,.08,.33,.08,.82,.07,1.34-.44,2.09-.54,1.04-.13,1.26,.4,2.17,.83,1.43,.68,2.13,.26,2.4-.72,.07-.28,.11-.56,.13-.85,0-.43,.18-.84,.5-1.13h.02c.76,.06,1.28-.37,1.95-.51l.42-.05c.79,0,1.06,.47,1.88,.85,.38,.2,.8,.31,1.22,.33,.12,.44-.32,.84-.69,1.15-.62,.53-.73,2.11,.09,2.54,.34,.18,.86,.28,.94,.62,.08,.34-.27,.6-.5,.86-.05,.07-.1,.14-.14,.21-.44,.79-.15,1.78,.64,2.22,.2,.09,.44,.17,.51,.38,.03,.16,.02,.32-.05,.46-.08,.29-.11,.58-.08,.88,0,.1,.04,.2,.11,.28,.08,.05,.17,.08,.26,.07,1.19,.05,1.76-.37,2.48,.67,.06,.11,.15,.2,.25,.26,.1,.05,.21,.08,.33,.08,.82,.07,1.34-.44,2.09-.54,1.04-.13,1.26,.4,2.16,.83,1.44,.67,2.13,.26,2.4-.72,.07-.28,.11-.56,.13-.85,.11-1.76,1.78-1.48,3.21-1.72,.1,0,.19-.07,.23-.16h.09c.82,.07,1.34-.44,2.09-.54,1.04-.13,1.26,.4,2.17,.83,1.43,.68,2.13,.26,2.4-.72,.07-.28,.11-.56,.13-.85,.09-1.37,1.13-1.5,2.25-1.61,.04,.54,.35,1.03,.83,1.28,.2,.09,.44,.17,.51,.38,.03,.15,.01,.31-.05,.46-.08,.29-.11,.58-.08,.88,0,.1,.04,.2,.11,.28,.08,.05,.17,.08,.26,.08,1.19,.05,1.76-.37,2.48,.67,.06,.1,.15,.19,.25,.26,.1,.05,.21,.08,.33,.08,.82,.07,1.34-.44,2.09-.54,1.04-.13,1.26,.4,2.17,.83,1.43,.68,2.13,.26,2.4-.72,.07-.28,.11-.56,.13-.85,.11-1.76,1.78-1.48,3.21-1.72,1.12-.18-1.84-3.01,.41-3.92,.44-.12,.82-.39,1.09-.75,.21-.55,.02-1.16-.46-1.5Z" style="opacity:.2;"></path><g style="opacity:.2;"><path d="M423.78,202.93c-.43-.26-.92-.38-1.42-.36-.31-.37-.06-.93,.24-1.31,.29-.38,.66-.8,.54-1.28-.17-.71-1.16-.73-1.87-.59-.27-.43-.26-.96-.4-1.45-.14-.49-.52-.99-1.01-.93-.5,.06-.76,.59-1.22,.7-.53,.13-1-.35-1.42-.7-.42-.35-1.15-.58-1.44-.11-.17,.28-.07,.67-.25,.95-.31,.48-1.05,.18-1.51-.16s-1.19-.64-1.51-.18c-.08,.15-.14,.32-.18,.49-.21,.63-.89,.94-1.42,1.34-.53,.4-.95,1.19-.5,1.69,.22,.24,.6,.34,.72,.65,.14,.4-.26,.73-.57,.99-.52,.44-.61,1.76,.07,2.12,.29,.15,.71,.2,.8,.52,.08,.32-.22,.51-.4,.72-.46,.59-.35,1.45,.24,1.91,.06,.04,.11,.08,.18,.12,.16,.08,.37,.14,.43,.32,.03,.13,.02,.27-.04,.4-.07,.24-.09,.49-.06,.73,0,.09,.03,.17,.09,.23,.06,.05,.14,.07,.22,.06,.99,.04,1.46-.31,2.07,.55,.05,.09,.12,.16,.21,.22,.09,.04,.18,.07,.27,.07,.68,.06,1.12-.37,1.75-.45,.86-.11,1.04,.33,1.8,.69,1.19,.56,1.78,.21,1.99-.6,.06-.23,.09-.47,.11-.7,.09-1.47,1.49-1.24,2.68-1.44,.93-.16-1.53-2.5,.34-3.26,.37-.1,.69-.32,.91-.63,.2-.48,.02-1.04-.42-1.31Z"></path></g><path d="M441.97,194.82l1.53-4.86,2.98-3.84-.51-.43-2.81,3.07-.5-4.86h-.81s.67,5.77-.29,7.89c0,0-3.5,8.9-5.63,10.83-.12,.11-.23,.24-.31,.38-.64-1.64-1.47-3.19-2.47-4.64,.84-2.15,2.65-6.88,3.26-9.41,.48-1.97,.84-3.96,1.08-5.97l-.7-.08s-1.98,9.35-5.25,13.6c-.97-.89-2.07-1.63-3.26-2.19-.27-1.31-.38-3.6,.49-7.17l-.69-.18s-1.32,3.02-1.2,6.64c-.49-.25-.97-.53-1.42-.84-3.15-2.22-5.37-6.22-5.37-6.22l-.65,.63s2.69,5.91,6.44,7.88c3.75,1.97,6.18,6.78,6.37,8.04,.05,.36,.49,3.22-.11,8.22-3.99-1.7-11.9-6.39-12.42-6.82l-.92,1.24,12.79,9.15c.2,12.2-.7,15.71-.67,18.45h7.45c-.18-3.79-1.77-8.85-1.08-23.74,.06-.37,.12-.78,.18-1.27,.58-4.57,4.05-10.8,5.69-12.58,1.77-1.9,3.73-3.41,3.73-3.41l-.45-.97-4.47,3.44Z" style="fill:#263238;"></path></g><g><g><g><path d="M123.23,212.6c.74,12.05,4.71,56.69,4.71,56.69l-28.83,.27,8.12-80.64-12.94-3.94-2.72-7.84-10.92-6.18-5.34-8.2,2.06-.5,5.9,7.57,6.88,1.49-2.95-6.97h3.28l8.19,16.16,8.41,1.72,.77-29.39c8.44,3.94,11.14-2.62,11.14-2.62,0,0,2.18,46.02,3.41,49.5h0c1.07-.54,2.28-1.46,3.45-2.49,2.86-2.52,5.3-5.48,7.34-8.69l.55-.86h2.62l-13.13,24.94Z" style="fill:#263238;"></path><path d="M123.23,212.6c.74,12.05,4.71,56.69,4.71,56.69l-28.83,.27,8.12-80.64-12.94-3.94-2.72-7.84-10.92-6.18-5.34-8.2,2.06-.5,5.9,7.57,6.88,1.49-2.95-6.97h3.28l8.19,16.16,8.41,1.72,.77-29.39c8.44,3.94,11.14-2.62,11.14-2.62,0,0,2.18,46.02,3.41,49.5h0c1.07-.54,2.28-1.46,3.45-2.49,2.86-2.52,5.3-5.48,7.34-8.69l.55-.86h2.62l-13.13,24.94Z" style="fill:#fff;"></path></g><polygon points="108.66 229.68 106.07 269.5 110.64 269.45 110.64 238.03 108.66 229.68" style="fill:#263238; isolation:isolate;"></polygon><path d="M123.23,212.6l13.13-24.94h-2.62l-.55,.86c-2.04,3.22-4.48,6.18-7.34,8.69-1.17,1.03-2.38,1.96-3.45,2.49-1.23-3.48-3.41-49.5-3.41-49.5,0,0-1.18,2.87-4.43,3.68-.12,14.87-.25,29.73-.37,44.6-.93-2.12-1.74-4.14-1.82-6.35-.28,6.09-.65,12.64-.63,18.65l5.05,18.63,1.01,39.96,10.38-.1s-4.22-44.64-4.95-56.69Z" style="fill:#263238; isolation:isolate;"></path></g><path d="M155.68,134.71c4.21,1.5,7.1,5.95,6.97,10.41-.13,4.46-3.16,8.66-7.28,10.38-4.12,1.72-9.11,.99-12.7-1.67-.18,4.29-3.11,8.95-7.2,10.25-4.09,1.3-8.91-.22-11.53-3.61-11.02,6.92-49.61,9.49-56.39-20-1.4-6.09,1.99-12.54,6.96-16.33,4.97-3.78,11.29-5.33,17.49-6.09,5.88-9.37,18.93-14.49,29.9-13.02,10.97,1.47,20.72,9.77,23.92,20.36,11.18,.03,10.02,10.07,9.86,9.32Z" style="fill:#467B65;"></path><path d="M142.06,192.72c-1.25,1.84-3.6,2.87-5.8,2.52-2.2-.35-4.13-2.04-4.75-4.18-2.61,1.84-6.65,1.38-9.29-.41-2.64-1.79-4.01-5.29-3.27-8.39,.74-3.11,3.52-5.62,6.69-6.04,.33-3.04,1.85-5.59,4.45-7.21,2.59-1.62,5.94-1.97,8.81-.93,3.4-.62,6.89,.6,9.37,3.01,1.77,1.72,2.95,4.15,2.74,6.61-.21,2.46-2,4.82-4.42,5.28,.81,1.84,1.04,3.9,.25,5.75-.78,1.85-2.89,3.29-4.78,3.99Z" style="fill:#467B65;"></path><path d="M86.5,148.14c2.11-.73,4.61-.13,6.16,1.47,1.55,1.6,2.07,4.11,1.29,6.2,3.19,.1,6.15,2.89,7.19,5.91s.03,6.63-2.42,8.68c-2.45,2.04-6.19,2.38-8.97,.81-2.09,2.23-4.84,3.36-7.88,3.1-3.05-.26-5.93-1.99-7.61-4.55-3.1-1.54-5.15-4.62-5.69-8.03-.38-2.44,.14-5.09,1.78-6.93,1.64-1.84,4.49-2.65,6.71-1.57,.46-1.95,1.51-3.74,3.25-4.75,1.73-1.01,4.29-.89,6.21-.32Z" style="fill:#467B65;"></path><g style="opacity:.2;"><path d="M142.06,192.72c-1.25,1.84-3.6,2.87-5.8,2.52-2.2-.35-4.13-2.04-4.75-4.18-2.61,1.84-6.65,1.38-9.29-.41-2.64-1.79-4.01-5.29-3.27-8.39,.74-3.11,3.52-5.62,6.69-6.04,.33-3.04,1.85-5.59,4.45-7.21,2.59-1.62,5.94-1.97,8.81-.93,3.4-.62,6.89,.6,9.37,3.01,1.77,1.72,2.95,4.15,2.74,6.61-.21,2.46-2,4.82-4.42,5.28,.81,1.84,1.04,3.9,.25,5.75-.78,1.85-2.89,3.29-4.78,3.99Z"></path></g></g><g><g><g><path d="M411.08,227.7c.63,10.25,4,48.22,4,48.22l-24.52,.23,6.91-68.59-11-3.35-2.31-6.67-9.29-5.26-4.54-6.97,1.76-.43,5.02,6.44,5.85,1.27-2.51-5.93h2.79l6.97,13.74,7.15,1.47,.65-25c7.18,3.36,9.48-2.23,9.48-2.23,0,0,1.86,39.15,2.9,42.1h0c.91-.46,1.94-1.24,2.93-2.12,2.43-2.14,4.51-4.66,6.25-7.4l.47-.73h2.23l-11.17,21.22Z" style="fill:#263238;"></path><g style="isolation:isolate; opacity:.1;"><path d="M411.08,227.7c.63,10.25,4,48.22,4,48.22l-24.52,.23,6.91-68.59-11-3.35-2.31-6.67-9.29-5.26-4.54-6.97,1.76-.43,5.02,6.44,5.85,1.27-2.51-5.93h2.79l6.97,13.74,7.15,1.47,.65-25c7.18,3.36,9.48-2.23,9.48-2.23,0,0,1.86,39.15,2.9,42.1h0c.91-.46,1.94-1.24,2.93-2.12,2.43-2.14,4.51-4.66,6.25-7.4l.47-.73h2.23l-11.17,21.22Z" style="fill:#fff;"></path></g></g><path d="M385.23,195.68l2.99,5.76,9.35,2.37s-.03-1.47-.18-3.36l-.04,1.41-7.15-1.47-6.97-13.74h-2.79l2.51,5.93-5.85-1.27-5.02-6.44-.24,.06,3.86,5.85,9.53,4.9Z" style="isolation:isolate; opacity:.1;"></path><polygon points="398.69 242.23 396.48 276.09 400.37 276.06 400.37 249.33 398.69 242.23" style="fill:#263238; isolation:isolate;"></polygon><path d="M411.08,227.7l11.17-21.22h-2.23l-.47,.73c-1.74,2.74-3.81,5.25-6.25,7.4-1,.88-2.03,1.66-2.93,2.12-1.04-2.96-2.9-42.1-2.9-42.1,0,0-1.01,2.45-3.77,3.13-.11,12.65-.21,25.29-.32,37.94-.79-1.81-1.48-3.52-1.55-5.4-.24,5.18-.55,10.75-.53,15.86l4.3,15.85,.86,33.99,8.83-.08s-3.59-37.97-4.21-48.22Z" style="fill:#263238; isolation:isolate;"></path></g><path d="M438.68,161.44c3.58,1.28,6.04,5.06,5.93,8.86-.11,3.8-2.69,7.36-6.19,8.83s-7.75,.84-10.8-1.42c-.16,3.65-2.65,7.61-6.13,8.72-3.48,1.1-7.58-.18-9.81-3.07-9.37,5.89-42.2,8.07-47.97-17.01-1.19-5.18,1.69-10.67,5.92-13.89,4.23-3.22,9.61-4.54,14.88-5.18,5.01-7.97,16.11-12.33,25.43-11.07,9.33,1.25,17.62,8.31,20.35,17.32,9.51,.03,8.52,8.57,8.38,7.93Z" style="fill:#467B65;"></path><path d="M365.89,193.36c-1.93,1.73-4.89,2.21-7.27,1.19-2.38-1.02-4.08-3.48-4.17-6.07-3.47,1.33-7.9-.33-10.37-3.11-2.47-2.77-3.02-7.11-1.3-10.4,1.72-3.3,5.58-5.34,9.27-4.91,1.24-3.34,3.68-5.78,7.07-6.87,3.39-1.09,7.26-.53,10.21,1.46,4.02,.27,7.6,2.64,9.72,6.07,1.51,2.44,2.14,5.53,1.21,8.24-.93,2.71-3.63,4.87-6.49,4.7,.39,2.3,.06,4.7-1.35,6.56-1.41,1.86-4.2,2.88-6.52,3.14Z" style="fill:#467B65;"></path><g style="opacity:.2;"><path d="M365.89,193.36c-1.93,1.73-4.89,2.21-7.27,1.19-2.38-1.02-4.08-3.48-4.17-6.07-3.47,1.33-7.9-.33-10.37-3.11-2.47-2.77-3.02-7.11-1.3-10.4,1.72-3.3,5.58-5.34,9.27-4.91,1.24-3.34,3.68-5.78,7.07-6.87,3.39-1.09,7.26-.53,10.21,1.46,4.02,.27,7.6,2.64,9.72,6.07,1.51,2.44,2.14,5.53,1.21,8.24-.93,2.71-3.63,4.87-6.49,4.7,.39,2.3,.06,4.7-1.35,6.56-1.41,1.86-4.2,2.88-6.52,3.14Z"></path></g><path d="M420.59,164.16c2.45-.84,5.36-.15,7.17,1.71,1.81,1.86,2.41,4.79,1.5,7.21,3.72,.11,7.15,3.36,8.36,6.87,1.21,3.51,.04,7.72-2.82,10.1-2.86,2.38-7.21,2.77-10.44,.94-2.43,2.6-5.63,3.91-9.18,3.6-3.54-.31-6.9-2.32-8.85-5.29-3.6-1.8-5.99-5.37-6.62-9.35-.45-2.83,.16-5.93,2.07-8.07,1.91-2.14,5.23-3.09,7.81-1.83,.53-2.27,1.76-4.35,3.78-5.53,2.02-1.17,4.99-1.04,7.23-.37Z" style="fill:#467B65;"></path></g></g><g id="freepik--Plants--inject-103"><g><path d="M422.28,270.5c-.42-1.05-3.26,.93-3.26,.93,0,0,4.44-5.12,2.74-5.93-1.7-.81-4.13,4.21-4.13,4.21,0,0,4.11-10.32,1.52-10.55-2.59-.23-3.5,10.25-3.5,10.25,0,0,.08-7.71-1.6-6.97-1.68,.75-.52,7.77-.52,7.77,0,0-1.86-2.94-2.25-1.64-.39,1.3,3.88,7.15,3.88,7.15,2.85-1.33,7.55-4.18,7.13-5.23Z" style="fill:#467B65;"></path><path d="M415.02,275.76l2.05-7.86-1.8,7.91c-.03,.16-.29,.11-.24-.06h0Z" style="fill:#263238;"></path></g><g><path d="M332.59,384.63c-.6-1.5-4.68,1.34-4.68,1.34,0,0,6.38-7.36,3.94-8.52-2.44-1.16-5.93,6.05-5.93,6.05,0,0,5.9-14.83,2.18-15.16-3.72-.33-5.03,14.73-5.03,14.73,0,0,.12-11.09-2.3-10.01-2.42,1.07-.75,11.16-.75,11.16,0,0-2.67-4.22-3.24-2.36-.57,1.87,5.57,10.28,5.57,10.28,4.09-1.91,10.85-6.01,10.25-7.52Z" style="fill:#467B65;"></path><path d="M322.2,392.21l2.89-11.31-2.64,11.36c-.03,.16-.29,.11-.24-.06h0Z" style="fill:#263238;"></path></g><g><path d="M65.19,438.84c-1.55-.8-2.86,4.39-2.86,4.39,0,0,0-10.48-2.81-9.7-2.8,.77-.55,9.1-.55,9.1,0,0-5.65-16.21-8.91-13.86-3.26,2.35,6.29,15.52,6.29,15.52,0,0-7.71-9.09-8.92-6.52-1.21,2.57,7.25,9.6,7.25,9.6,0,0-5.15-1.55-4.29,.37,.86,1.92,11.77,4.43,11.77,4.43,1.98-4.43,4.58-12.53,3.03-13.33Z" style="fill:#467B65;"></path><path d="M62.09,452.31l-5.63-11.22,5.85,11.1c.08,.14-.15,.27-.22,.12h0Z" style="fill:#263238;"></path></g></g><g id="freepik--Speech_Bubble_2--inject-103"><g><g><path d="M363.19,310.37c-1.87,8.82,3.77,17.48,12.58,19.35,6.81,1.44,13.51-1.6,17.07-7.11l4.84-.75-2.64-4.46c.02-.09,.05-.17,.07-.26,1.87-8.82-3.77-17.48-12.58-19.35-8.82-1.87-17.48,3.77-19.35,12.58Z" style="fill:#467B65;"></path><path d="M363.19,310.37c-1.87,8.82,3.77,17.48,12.58,19.35,6.81,1.44,13.51-1.6,17.07-7.11l4.84-.75-2.64-4.46c.02-.09,.05-.17,.07-.26,1.87-8.82-3.77-17.48-12.58-19.35-8.82-1.87-17.48,3.77-19.35,12.58Z" style="fill:#fff; opacity:.7;"></path></g><path d="M383.55,313.78c0,1.21,.98,2.19,2.19,2.19s2.19-.98,2.19-2.19-.98-2.19-2.19-2.19-2.19,.98-2.19,2.19Z" style="fill:#467B65;"></path><path d="M376.84,313.78c0,1.21,.98,2.19,2.19,2.19s2.19-.98,2.19-2.19-.98-2.19-2.19-2.19-2.19,.98-2.19,2.19Z" style="fill:#467B65;"></path><path d="M370.14,313.78c0,1.21,.98,2.19,2.19,2.19s2.19-.98,2.19-2.19-.98-2.19-2.19-2.19-2.19,.98-2.19,2.19Z" style="fill:#467B65;"></path></g></g><g id="freepik--Speech_Bubble_1--inject-103"><g><g><path d="M152.61,301.71c1.87,8.82-3.77,17.48-12.58,19.35-6.81,1.44-13.51-1.6-17.07-7.11l-4.84-.75,2.64-4.46c-.02-.09-.05-.17-.07-.26-1.87-8.82,3.77-17.48,12.58-19.35,8.82-1.87,17.48,3.77,19.35,12.58Z" style="fill:#467B65;"></path><path d="M152.61,301.71c1.87,8.82-3.77,17.48-12.58,19.35-6.81,1.44-13.51-1.6-17.07-7.11l-4.84-.75,2.64-4.46c-.02-.09-.05-.17-.07-.26-1.87-8.82,3.77-17.48,12.58-19.35,8.82-1.87,17.48,3.77,19.35,12.58Z" style="fill:#fff; opacity:.7;"></path><path d="M154.3,300.8c-.12,0-.23-.09-.25-.21-.88-5.13-4.55-9.74-9.35-11.75-.13-.05-.19-.2-.13-.33,.05-.13,.2-.19,.33-.13,4.95,2.08,8.74,6.84,9.65,12.13,.02,.14-.07,.27-.2,.29-.01,0-.03,0-.04,0Zm-11.56-12.94c.06-.12,.01-.27-.11-.34-.75-.38-1.59-.61-2.43-.66-.14,0-.26,.1-.26,.24s.1,.26,.23,.26c.77,.04,1.54,.25,2.23,.61,.04,.02,.08,.03,.11,.03,.09,0,.18-.05,.22-.14Z" style="fill:#467B65;"></path><path d="M154.3,300.8c-.12,0-.23-.09-.25-.21-.88-5.13-4.55-9.74-9.35-11.75-.13-.05-.19-.2-.13-.33,.05-.13,.2-.19,.33-.13,4.95,2.08,8.74,6.84,9.65,12.13,.02,.14-.07,.27-.2,.29-.01,0-.03,0-.04,0Zm-11.56-12.94c.06-.12,.01-.27-.11-.34-.75-.38-1.59-.61-2.43-.66-.14,0-.26,.1-.26,.24s.1,.26,.23,.26c.77,.04,1.54,.25,2.23,.61,.04,.02,.08,.03,.11,.03,.09,0,.18-.05,.22-.14Z" style="fill:#fff; opacity:.7;"></path></g><path d="M132.25,305.13c0,1.21-.98,2.19-2.19,2.19s-2.19-.98-2.19-2.19,.98-2.19,2.19-2.19,2.19,.98,2.19,2.19Z" style="fill:#467B65;"></path><path d="M138.96,305.13c0,1.21-.98,2.19-2.19,2.19s-2.19-.98-2.19-2.19,.98-2.19,2.19-2.19,2.19,.98,2.19,2.19Z" style="fill:#467B65;"></path><path d="M145.67,305.13c0,1.21-.98,2.19-2.19,2.19s-2.19-.98-2.19-2.19,.98-2.19,2.19-2.19,2.19,.98,2.19,2.19Z" style="fill:#467B65;"></path></g></g><g id="freepik--Character_3--inject-103"><g><g><polygon points="324.46 460.17 322.15 450.96 344.79 440.53 348.45 454.52 324.46 460.17" style="fill:#eec1bb;"></polygon><g><path d="M325.07,448.03l1.36,3.09c.31,.7,.24,1.5-.14,2.16-1.64,2.85-.13,3.78,3.01,4.71,.69,1.17-.58,2.12-.91,2.39l-7.37,6.01c-.61,.51-1.52,.43-2.03-.19-.09-.11-.16-.23-.22-.36-1.66-3.75-2.44-5.52-4.5-10.19l-6.3-14.27c-1.72-3.89,1.84-6.43,2.92-4.98,4.77,6.5,9.15,10.66,12.23,11.96,.55,.25,.64-.29,1.97-.35Z" style="fill:#263238;"></path><path d="M320.18,444.69c.45,.96,1.01,1.88,1.65,2.73,.07,.07,.19,.08,.26,0,.04-.04,.06-.09,.06-.15,.02-.53,.12-5.18-.99-5.85-.2-.13-.45-.13-.66-.01-.4,.18-.69,.54-.78,.97-.1,.8,.06,1.6,.45,2.3Zm1.61,2.02c-.71-1.04-1.93-3.04-1.66-4.2,.08-.31,.28-.56,.57-.71,.08-.06,.19-.06,.28,0,.61,.37,.82,3,.82,4.91Z" style="fill:#467B65;"></path><path d="M321.8,447.38s.02,.09,.05,.12c.07,.03,.15,.02,.2-.03,.16-.07,3.56-2.66,2.38-4.66-.3-.49-.62-.53-.84-.46-1.07,.31-1.9,3.58-1.87,4.96l.07,.08Zm2.43-4.23c.59,1.34-1.28,3.09-2.05,3.75,.11-1.55,.91-4.01,1.57-4.18,.05-.02,.19-.08,.41,.29l.07,.14Z" style="fill:#467B65;"></path><path d="M321.21,450.56s-.1-.01-.14-.04c-.11-.08-.14-.23-.07-.35,.62-.92,.8-2.1,.5-3.16-.04-.13,.04-.27,.17-.31,.14-.04,.27,.04,.31,.17,.35,1.2,.14,2.54-.56,3.58-.05,.07-.13,.11-.21,.11Z" style="fill:#467B65;"></path><path d="M318.92,449.28s-.1-.01-.14-.04c-.11-.08-.14-.23-.07-.35,.62-.92,.8-2.1,.5-3.16-.04-.13,.04-.27,.17-.31,.13-.04,.27,.04,.31,.17,.35,1.2,.13,2.54-.56,3.58-.05,.07-.13,.11-.21,.11Z" style="fill:#467B65;"></path><path d="M316.65,447.43s-.1-.01-.14-.04c-.11-.08-.14-.23-.07-.35,.62-.92,.8-2.1,.5-3.16-.04-.13,.04-.27,.17-.31,.13-.04,.27,.04,.31,.17,.35,1.2,.14,2.54-.56,3.58-.05,.07-.13,.11-.21,.11Z" style="fill:#467B65;"></path></g><polygon points="332.82 446.04 330.05 447.32 333.37 458.07 336.56 457.32 332.82 446.04" style="opacity:.3;"></polygon><path d="M392.42,404.93l-12.82,5.78c-15.78-.39-68.92-3.63-70.53,13.07-6.93,19.34,41.32,20.75,73.27,23.21,.22,.02,.39,.15,.5,.33,.25,.41,3.23,2.03,7.14,2.86,4.82,1.02,15.93,2.38,23.19,1.87,12.52-.88,17-11.04,15.91-25.82-.45-6.08-3.77-11.21-4.26-18.77l-32.4-2.53Z" style="fill:#263238;"></path><path d="M424.02,429.45l-.14,.68s-39.93-8.69-65.82,3.95c0,0-26.19-7.62-31.24-12.4,28.37,15.79,56.25,1.66,56.25,1.66l13.5-4.26c11.03-3.48,21.48,.47,27.45,10.38Z" style="isolation:isolate; opacity:.2;"></path><polygon points="382.31 449.72 377.52 457.91 354.04 449.55 361.2 436.98 382.31 449.72" style="fill:#eec1bb;"></polygon><g><path d="M372.24,457.32l2.19-2.57c.5-.58,1.25-.87,2.01-.81,3.28,.24,3.47-1.52,2.94-4.75,.75-1.13,2.16-.4,2.55-.21l8.62,4.04c.72,.33,1.04,1.19,.71,1.91-.06,.13-.14,.25-.23,.36-2.66,3.12-3.92,4.59-7.23,8.47l-10.12,11.87c-2.76,3.23-6.59,1.12-5.76-.47,3.79-7.12,5.64-12.87,5.48-16.21-.01-.6-.54-.45-1.17-1.63Z" style="fill:#263238;"></path><path d="M371.35,463.18c.67-.83,1.26-1.72,1.74-2.67,.04-.1-.01-.2-.11-.24-.05-.02-.11-.02-.16,.01-.48,.21-4.72,2.14-4.84,3.43-.03,.23,.08,.47,.27,.6,.34,.28,.78,.38,1.21,.28,.76-.26,1.42-.75,1.88-1.41Zm1.12-2.33c-.63,1.1-1.9,3.06-3.06,3.32-.31,.06-.63-.01-.88-.2-.09-.05-.14-.15-.12-.25,.07-.71,2.35-2.04,4.07-2.87Z" style="fill:#467B65;"></path><path d="M373.08,460.55s.07-.06,.09-.1c0-.07-.05-.14-.11-.17-.13-.11-3.94-2.05-5.24-.12-.31,.49-.21,.79-.05,.96,.74,.82,4.05,.16,5.28-.47l.04-.1Zm-4.86-.36c.95-1.11,3.34-.19,4.27,.22-1.45,.58-4.01,.92-4.45,.39-.04-.04-.16-.14,.09-.49l.09-.12Z" style="fill:#467B65;"></path><path d="M372.7,461.04c-.07,0-.14-.03-.19-.08-.09-.1-.08-.26,.02-.35,.93-.83,2.22-1.23,3.47-1.04,.14,.02,.23,.15,.21,.28-.02,.14-.14,.23-.28,.21-1.09-.16-2.24,.19-3.06,.92-.05,.04-.11,.06-.17,.06Z" style="fill:#467B65;"></path><path d="M372.54,463.67c-.07,0-.14-.03-.19-.08-.09-.1-.08-.26,.02-.35,.93-.83,2.23-1.23,3.47-1.04,.14,.02,.23,.15,.21,.28-.02,.14-.14,.23-.28,.21-1.1-.16-2.24,.19-3.06,.92-.05,.04-.11,.06-.17,.06Z" style="fill:#467B65;"></path><path d="M371.86,466.51c-.07,0-.14-.03-.19-.08-.09-.1-.08-.26,.02-.35,.93-.83,2.23-1.23,3.47-1.04,.14,.02,.23,.15,.21,.28-.02,.14-.14,.23-.28,.21-1.09-.16-2.24,.19-3.06,.92-.05,.04-.11,.06-.17,.06Z" style="fill:#467B65;"></path></g><path d="M332.13,445.21s57.46-26.57,76.42-25.7c18.96,.88,20,15.32,12.19,25.77s-24.85,3.77-24.85,3.77c0,0,14.08-2.43,12.66-6.3s-6.97,1.54-6.97,1.54c0,0-34.52,11.15-64.76,13.72l-4.69-12.79Z" style="fill:#263238;"></path><path d="M381.45,448.65l21.88-7.75s-5.66,5.76-20.53,10.31c-14.99,4.58-22.55,3.38-22.55,3.38,.83,.45,21.2-5.94,21.2-5.94Z" style="isolation:isolate; opacity:.2;"></path><polygon points="358.33 433.98 337.4 442.84 335.3 442.49 355.19 433.22 358.33 433.98" style="isolation:isolate; opacity:.2;"></polygon></g><g><g><polygon points="366.39 374.81 357.67 373.05 354.27 378.34 362.29 382.09 366.39 374.81" style="fill:#eec1bb;"></polygon><g><path d="M360.3,373.2s.36-3.07-1.25-5.05c-1.61-1.98-2.36-4-3.66-5.39-1.3-1.39-1.2,1.17-.87,2.53,.33,1.36,.69,2.9-.37,2.98-1.06,.08-9.3-3.84-10.75-3.56-1.45,.28-.32,1.33-.32,1.33,0,0-2.03-.9-2.6-.19-.15,.18-.2,.85,.66,1.41,1.93,1.25,6.13,3.65,6.13,3.65-.24-.14-5.63-2.74-6.48-3.03-1.12-.37-1.84,.03-2.03,.68-.28,.94,6.3,4.39,6.47,4.73,0,0-3.72-2.11-4.79-1.45s1.2,2.12,3.44,3.02c2.06,.83,5.87,3,8.05,3.64,2.68,.79,4.65,.72,6.36-1.26,1.71-1.98,2.03-4.04,2.03-4.04Z" style="fill:#eec1bb;"></path><path d="M348.02,368.78s-.04,0-.06-.02c-1.52-.89-3.1-1.73-4.7-2.49-.06-.03-.09-.1-.06-.17,.03-.06,.1-.09,.17-.06,1.61,.76,3.2,1.6,4.72,2.5,.06,.04,.08,.11,.04,.17-.02,.04-.06,.06-.11,.06Z" style="opacity:.3;"></path><path d="M346.58,374.33h-.02c-.07-.01-.11-.08-.1-.15,.41-2.27,1.51-4.45,3.11-6.12,.05-.05,.13-.05,.18,0,.05,.05,.05,.13,0,.18-1.56,1.64-2.64,3.76-3.04,5.99-.01,.06-.06,.1-.12,.1Z" style="opacity:.3;"></path><path d="M356.32,374.33s-.04,0-.06-.01c-.85-.44-1.55-1.2-1.92-2.08-.38-.89-.43-1.9-.15-2.83,.02-.07,.09-.1,.16-.08,.07,.02,.1,.09,.08,.16-.26,.86-.21,1.83,.14,2.66,.35,.83,1.01,1.54,1.81,1.96,.06,.03,.08,.11,.05,.17-.02,.04-.07,.07-.11,.07Z" style="opacity:.3;"></path></g></g><path d="M407.8,353.12s-6.88,.9-10.69,6.28c-3.81,5.37-14.71,20.8-14.71,20.8l-19.6-6.09-3.73,8.77s20.05,10.73,26.63,10.87c6.58,.14,14.56-12.69,14.56-12.69l7.54-27.95Z" style="fill:#467B65;"></path><g style="opacity:.3;"><path d="M402,361.98c-1.21,1.45-1.96,2.2-2.58,4.07-4.55,13.73-.9,17.22-1.33,18.93l2.14-10.7c.58-4.27,1.19-8.03,1.77-12.3Z"></path></g></g><g><path d="M441.45,381.55l8.2-16.97c-2.49-5.49-18.23-12.01-18.23-12.01l-10.89-1.21s-4.3,.24-8.04,.8c-5,.76-7.77,1.57-9.33,4.01,0,0-2.95,5.5-3.76,17.7-.22,3.36-2.37,20.9-4.24,26.42l-9.47,6.88c2.78,3.89,7.95,9.87,13,10.32,19.52,1.75,29.09,2.53,29.09,2.53,.51-3.53,.48-8,.52-10.72,.85-3.33,2.63-6.35,6.16-12.49,.59-1.03,6.32-14.23,6.98-15.26Z" style="fill:#467B65;"></path><path d="M435.82,393.76s-1.41-11.58,.97-20.74l5.17,7.4-6.15,13.34Z" style="opacity:.3;"></path></g><g><path d="M467.67,355.32c-.26-.32-.65-.5-1.03-.67-4.78-2.23-8.47-6.66-9.82-11.76-1.06-4.02-.71-8.25-.59-12.4,.12-4.15-.06-8.49-2.03-12.15-1.97-3.66-5.96-7.09-11.41-1.5l1.66,2.73c-.66,9.24-1.31,18.49-1.65,27.75-.12,3.22-.18,6.51,.84,9.56,1.26,3.76,4.2,6.92,7.86,8.44,3.66,1.52,7.97,1.38,11.53-.38,1.74-.86,3.43-2.34,3.51-4.28-2.1,.19-4.28-.8-5.51-2.52,.87-.46,1.92-.34,2.9-.21,.98,.13,2.02,.26,2.91-.17,.89-.43,1.45-1.66,.84-2.44Z" style="fill:#263238;"></path><path d="M446.63,318.34c-.26-.64-.61-1.29-1.2-1.66-1.01-.64-2.33-.24-3.46,.17l.87,6.34c-.08,.49,.29,.96,.73,1.16,.45,.21,.96,.21,1.45,.2,.73,0,1.57-.06,2.03-.62,.31-.38,.36-.91,.37-1.4,.02-1.43-.25-2.86-.79-4.19Z" style="fill:#467B65;"></path><path d="M412.28,314.64c-2.19,2.2-2.96,5.52-2.73,8.62,.23,3.1,1.35,6.06,2.47,8.96,.98-6.04,2.59-11.98,4.77-17.7l-4.51,.13Z" style="fill:#263238;"></path><path d="M433.83,353.68s-3.77,2.02-8.7,5.01c-1.03,.62-2.13,1.13-3.26,1.51-3.07,1.03-5.79,1.46-6.26-.02-.11-.32-.17-.67-.2-1.02-.21-2.38,.56-5.54,2.65-6.7,2.35-1.31,3.59-2.56,3.59-4.85,.01-1.3-.23-2.69-.55-4.05l2.64-1.04,9.98-7.2c-1.86,5.13-3.86,14.49,.12,18.37Z" style="fill:#eec1bb;"></path><path d="M421.63,348.11c2.58-1,5.56-3,5.72-5.81,.06-1.19-.01-2.33-.17-3.09l-5.83,5.53c.22,1.08,.25,1.78,.28,3.37Z" style="opacity:.2;"></path><path d="M436.99,325.87c-2.27,8.65-3.04,12.35-8.34,16.2-7.97,5.79-18.07,1.72-18.43-7.29-.32-8.11,3.44-20.89,12.67-23.14,9.1-2.22,16.36,5.58,14.09,14.23Z" style="fill:#eec1bb;"></path><path d="M424.67,326.78c-.2,.92-.83,1.6-1.41,1.52-.58-.08-.89-.9-.69-1.82,.2-.92,.83-1.6,1.41-1.52,.58,.08,.89,.9,.69,1.82Z" style="fill:#263238;"></path><path d="M415.76,325.25c-.19,.89-.82,1.55-1.4,1.47-.58-.08-.89-.88-.7-1.77,.19-.89,.82-1.55,1.4-1.47,.58,.08,.89,.88,.7,1.77Z" style="fill:#263238;"></path><path d="M427.51,323.9c-.11,0-.22-.06-.3-.15-1.14-1.48-2.74-1.29-2.76-1.29-.24,.03-.44-.14-.46-.38-.01-.24,.17-.46,.41-.49,.08-.01,2.09-.25,3.51,1.59,.14,.18,.1,.46-.09,.61-.09,.07-.21,.11-.31,.1Z" style="fill:#263238;"></path><path d="M414.3,320.47c-.08-.04-.15-.12-.17-.23-.05-.21,.09-.45,.31-.53,2.19-.79,3.54,.31,3.6,.36,.16,.13,.16,.39,0,.57-.16,.18-.41,.22-.57,.09-.05-.04-1.11-.88-2.85-.25-.11,.04-.22,.03-.31-.02Z" style="fill:#263238;"></path><path d="M418.91,325.33s-1.92,3.06-3.81,4.85c-.33,.31-.25,.86,.15,1.09,1.02,.58,2.35,.43,2.35,.43l1.32-6.37Z" style="fill:#d4827d;"></path><path d="M424.31,325.05l-1.94-.81s.85,1.69,1.94,.81Z" style="fill:#263238;"></path><path d="M415.36,323.56l-1.94-.81s.85,1.69,1.94,.81Z" style="fill:#263238;"></path><path d="M433.22,337.37c29.44-18.23-3.47-30.62-3.47-30.62-13.22-9.26-13.68,4.82-13.68,4.82-6.62,6.91,2.75,12.96,2.75,12.96-3.95-5.68,2.16-9.08,2.16-9.08-.94,7.55,6.43,10.52,6.43,10.52-2.88-6.82-1.04-10.34-1.04-10.34,2.11,12.15,8.19,14.58,8.19,14.58l-1.34,7.15Z" style="fill:#263238;"></path><path d="M438.45,333.47c-1.34,1.63-3.21,2.48-4.82,2.61-2.42,.2-3-3.74-1.82-5.94,1.06-1.98,3.58-2.99,5.76-2.15,2.15,.82,2.4,3.62,.88,5.48Z" style="fill:#eec1bb;"></path><path d="M433.62,332.43s-.04,0-.06,0c-.13-.03-.22-.17-.19-.3,.21-.89,.78-1.68,1.55-2.16,.78-.48,1.73-.64,2.63-.43,.13,.03,.22,.17,.19,.3-.03,.13-.16,.22-.3,.19-.77-.18-1.58-.04-2.25,.37-.67,.41-1.15,1.09-1.33,1.85-.03,.12-.13,.19-.24,.19Z" style="opacity:.2;"></path><path d="M420.46,335.11c-.4,0-.85-.08-1.33-.27-.13-.05-.19-.19-.14-.32,.05-.13,.2-.19,.32-.14,2.28,.88,3.4-1.01,3.44-1.09,.07-.12,.22-.16,.34-.09,.12,.07,.16,.22,.09,.34-.01,.02-.92,1.58-2.72,1.58Z" style="fill:#263238;"></path><path d="M412.76,309.13c-1.69,.98-2.9,2.62-3.83,4.34-1.04,1.91-1.79,4.2-1.05,6.25,.77-1.31,1.77-2.48,2.94-3.45,.21,1.36,.94,2.63,2,3.51,1.03-1.76,2.17-3.45,3.42-5.06l2.1-5.73c-1.64-1.06-3.88-.84-5.57,.14Z" style="fill:#263238;"></path></g><g><path d="M449.77,446.5l.58,3.47c.13,.77,.8,1.34,1.58,1.34h20.57s.64-1.11-3.19-1.75c-3.83-.64-10.42-2.6-10.42-2.6l-1.63-2.64-7.5,2.19Z" style="fill:#eec1bb;"></path><path d="M451.62,392.52l-.78-12.29c.12-6.52-.12-15.6-2.31-17.32-4.42-3.47-8.88-1.15-11.49,2.89-1.05,1.82-.4,14.5,.15,22.83h0s1.11,19.63,3.59,29.18c1.68,6.47,8.87,29.49,8.87,29.49l8.81-1.26-6.84-53.52Z" style="fill:#467B65;"></path></g></g></g><g id="freepik--Character_2--inject-103"><g><g><path d="M256.4,409.84s-61.39-30.31-69.63-7.73c-6.6,18.03,36.82,43.37,74.45,45.26l-4.82-37.53Z" style="fill:#263238;"></path><polygon points="225.74 438.25 240.21 437.67 234.39 444.87 220.41 445.71 225.74 438.25" style="fill:#ebb376;"></polygon><path d="M229.64,437.76s-10.1-2.63-14.25-.49c-6.51,3.36-17.48,7.93-16.22,12.95,1.26,5.03,23.78-3.72,23.78-3.72l6.68-8.75Z" style="fill:#467B65;"></path><path d="M225.5,440.91s3.47,.23,2.7,2.73c-.78,2.5-5.27,2.86-5.27,2.86l2.57-5.6Z" style="fill:#467B65;"></path><path d="M245.92,408.81s66.54-26.9,69.26-1.22c2.02,18.94-39.51,35.8-84.55,38.89l15.29-37.66Z" style="fill:#263238;"></path><path d="M259.86,437.63c-10.98-7.31-28.08-17.32-46.33-27.83,14.66,6.91,24.59,11.97,31.85,16.13,8.69-5.01,20.85-8.8,31.05-11.72-8.91,4.37-21.02,9.42-29.03,13.87,9.18,6,12.3,9.42,12.45,9.56Z" style="isolation:isolate; opacity:.2;"></path><polygon points="266.5 439.15 260.26 439.9 261.11 446.55 272.23 446.32 266.5 439.15" style="fill:#ebb376;"></polygon><path d="M262.57,438.85s9.93-3.14,14.21-1.22c6.68,3.02,17.89,7.02,16.96,12.11-.94,5.09-23.96-2.51-23.96-2.51l-7.2-8.37Z" style="fill:#467B65;"></path><path d="M266.88,441.78s-3.39,.4-2.54,2.86c.86,2.46,5.42,2.59,5.42,2.59l-2.88-5.46Z" style="fill:#467B65;"></path></g><path d="M262.61,322.63s23.1,3.69,24.12,8.68c1.98,9.59,5.96,30.41,2.28,50.15-3.67,19.74,2.6,11.09-7.23,19.21-9.83,8.12-50.9,9.64-54.57,.33-3.03-7.73,8.96-24.61,6.25-38.53s-9.35-25.69-.8-32.16c8.55-6.47,29.95-7.67,29.95-7.67Z" style="fill:#467B65;"></path><g><path d="M239.25,281.31c-2.07-1.4-7.64-.27-9.47,3.81-1.96,4.34-3.94,12-6.64,10.73,1.18,1.93,3.43,2.93,5.65,2.51,0,0-1.73,3.07-4.91,2.83,1.74,2.73,4.89,4.23,8.11,3.87,5.27-.45,8.94-16.67,9.51-19.32-.61-2.63-.76-2.48-2.25-4.42Z" style="fill:#263238;"></path><path d="M242.56,281.22c4.39-1.6,9.25-1.31,13.41,.81,2.71,1.41,5.05,3.57,4.99,6.81-.4,6.76-1.17,13.48-2.32,20.15l-25.48-11.58s-1.71-6.95,.95-11.14c1.46-2.18,5.19-3.9,8.44-5.05Z" style="fill:#263238;"></path><path d="M238.56,281.91s6.44-7.32,18.52-2.07c12.08,5.24,4.98,21.52,4.98,21.52,0,0-1.87,6.9,1.39,7.73-.96,.65-2.04,1.1-3.18,1.31,0,0,1.43,1.63,2.68,1.21,0,0-1.62,1.12-5.11,.45-3.5-.68-19.26-30.14-19.26-30.14Z" style="fill:#263238;"></path><path d="M247.54,318.35h0v.09l1.6,4.17c.33,1.55,.41,3.14,.22,4.71-.46,1.62-.38,4.41,2.42,4.03,4.22-.57,11.35-7.45,11.43-9.35-2.58-5.58-4.95-12.18-5.22-17.74l-4.27,5.79-6.17,8.29Z" style="fill:#ebb376;"></path><g style="opacity:.2;"><path d="M247.59,318.46l1.6,4.17c2.52-1.49,5.02-4.4,5.35-7.29,.23-2.08-.89-3.89-1.73-3.91l-5.22,7.03Z"></path></g><path d="M235.9,310.59c.35,.92,.73,1.81,1.16,2.68,3.47,7.74,13.51,7.4,19.02,.85h0c.5-.6,.95-1.23,1.36-1.9,3.36-5.56,1.96-9.4,.41-18.31-1.08-6.71-7.4-11.28-14.11-10.2-1.9,.31-3.7,1.05-5.27,2.18-7.07,5-6.08,15.64-2.56,24.71Z" style="fill:#ebb376;"></path><path d="M258.01,294.69s-2.69,.42-2.56,2.74c.13,2.33,.39,2.61,.39,2.61l-3.13,1.01s0-8.93-2.32-8.57c-2.32,.36-.21-3.89-1.67-4.32-3.47-1.01-12.45-.15-15.36,5.63,.31-3.35,1.84-6.46,4.3-8.76,3.97-3.32,12.5-4.83,16.41-.97,3.91,3.86,3.93,10.63,3.93,10.63Z" style="fill:#263238;"></path><path d="M245.67,301.3c.2,.8-.06,1.55-.58,1.67-.52,.13-1.11-.42-1.31-1.22-.2-.8,.06-1.55,.58-1.67,.52-.13,1.11,.42,1.31,1.22Z" style="fill:#263238;"></path><path d="M237.88,303.42c.2,.8-.06,1.55-.58,1.67-.52,.13-1.11-.42-1.31-1.22-.2-.8,.06-1.55,.58-1.67s1.11,.42,1.31,1.22Z" style="fill:#263238;"></path><path d="M240.32,302.34s-1.12,3.36-1.69,5.47c-.16,.58,.23,1.19,.83,1.21,1.08,.04,2.09-.49,2.09-.49l-1.23-6.19Z" style="fill:#d58745;"></path><path d="M246.67,297.05c-.11,.08-.26,.1-.39,.04-1.58-.7-2.78,.05-2.79,.06-.18,.11-.42,.06-.53-.11-.12-.18-.06-.41,.11-.53,.06-.04,1.57-.98,3.53-.12,.2,.09,.28,.31,.2,.51-.03,.06-.07,.11-.12,.15Z" style="fill:#263238;"></path><path d="M244.8,310.79c-.17,0-.32-.12-.36-.29-.05-.2,.07-.4,.28-.45,1.04-.25,1.83-.93,2.67-2.26,.11-.17,.34-.23,.52-.12,.18,.11,.23,.34,.12,.52-.67,1.07-1.56,2.21-3.12,2.59-.03,0-.06,.01-.09,.01Z" style="fill:#263238;"></path><g><path d="M261.92,298.83c-.13,2.33-1.33,4.38-2.79,5.63-2.2,1.88-3.82-.63-4.25-3.34-.39-2.44-.42-5.52,2.28-6.35,2.66-.82,4.9,1.39,4.75,4.06Z" style="fill:#ebb376;"></path><path d="M256.21,300.72c-.12,0-.23-.09-.25-.22-.11-.79,0-1.6,.3-2.33,.2-.5,.59-1.17,1.28-1.54,.68-.36,1.52-.29,2.04,.17,.1,.09,.11,.25,.02,.35-.09,.1-.25,.11-.35,.02-.36-.32-.98-.36-1.47-.1-.56,.3-.88,.86-1.06,1.29-.27,.66-.36,1.37-.26,2.08,.02,.14-.08,.26-.21,.28-.01,0-.02,0-.03,0Z" style="opacity:.2;"></path></g><path d="M233.59,300.93c-.07,0-.15-.02-.21-.06-.18-.11-.24-.35-.13-.53,1.1-1.81,2.87-1.86,2.95-1.87,.21,0,.39,.16,.4,.38,0,.21-.16,.39-.37,.39-.07,0-1.44,.05-2.32,1.51-.07,.11-.19,.18-.31,.18Z" style="fill:#263238;"></path></g><g><path d="M229.59,333.52l-16.57,24.6,19.38,9.62,7.53-15.64c2.78-4.97,8.35-14.11,4.68-18.49-1.22-1.48-2.65-7.3-8.98-4.98-2.49,.91-4.56,2.68-6.04,4.88Z" style="fill:#467B65;"></path><path d="M231.94,366.23s2.04-18.08,1.43-17.58c-.61,.51-4.24,16.97-4.24,16.97l2.81,.61Z" style="opacity:.3;"></path><g><polygon points="226.16 359.19 227.59 358.21 243.87 363.66 262.73 361.92 263.73 363.23 243.8 365.02 226.16 359.19" style="fill:#fff;"></polygon><path d="M218.19,360.69s-8.84,19-9.3,22.11-.58,7.85,3.69,10.32,18.05-4.91,18.05-4.91v-10.39l-6.61,.86,5.51-12.37-11.34-5.63Z" style="fill:#ebb376;"></path><polygon points="227.38 388.2 245.59 394.48 266.14 392.32 263.73 363.23 243.8 365.02 225.51 358.97 227.38 388.2" style="fill:#263238;"></polygon><polygon points="243.8 365.02 245.59 394.48 227.38 388.2 225.51 358.97 243.8 365.02" style="isolation:isolate; opacity:.2;"></polygon><path d="M221.96,378.28s-5.76,2.22-7.66,4.91l7.09-2.45s.73,7.56,1.9,8.55c1.17,.99,4.68,.26,4.68,.26l-3.07-11.71-2.94,.45Z" style="opacity:.3;"></path><g><path d="M227.35,375.18s7.3,1.64,8.32,3.43c1.02,1.79-1.92,1.89-1.92,1.89,0,0,3.24,.09,3.39,1.47,.18,1.66-2.9,1.75-2.9,1.75,0,0,2.64,.18,2.69,1.42,.05,1.28-3.42,1.63-3.42,1.63,0,0,1.84,.48,1.38,1.36-.45,.88-7.8,1.76-10.09,.56-2.28-1.2-3.12-10.68-2.82-12.78,.09-.6,.42-1.6,2.99-2.68,.54-.23,1.17,0,1.44,.52l.72,1.38,.22,.05Z" style="fill:#ebb376;"></path><path d="M233.76,380.66s0,0-.01,0l-5.64-.43c-.08,0-.13-.08-.13-.17,0-.09,.07-.15,.15-.15l5.64,.43c.08,0,.13,.08,.13,.17,0,.08-.06,.14-.13,.15Z" style="opacity:.2;"></path><path d="M234.08,383.89h0l-5.45,.02c-.08,0-.14-.07-.14-.15,0-.09,.05-.14,.14-.16l5.45-.02c.08,0,.14,.07,.14,.16,0,.09-.06,.15-.13,.16Z" style="opacity:.2;"></path><path d="M233.33,386.94l-4.05,.13c-.08,0-.14-.07-.14-.15,0-.09,.06-.16,.13-.16l4.05-.13c.08,0,.14,.07,.14,.15,0,.09-.06,.16-.13,.16Z" style="opacity:.2;"></path></g></g></g><g><path d="M286.07,330.55c4.04,3.65,10.43,12.63,14.03,32.53l-22.54,1.93s-4.55-17.18-4.28-27.59c.1-3.9,1.49-6.17,3.2-7.47,2.93-2.13,6.96-1.88,9.6,.6Z" style="fill:#467B65;"></path><g><path d="M298.62,363.08s5.41,21.03,3.16,26.77c-2.71,6.93-38-1.53-38-1.53l-.08-8.4,23.21-1.48-3.54-14.03,15.25-1.32Z" style="fill:#ebb376;"></path><g><path d="M264.11,376.6s-7.3,1.64-8.32,3.43c-1.02,1.79,1.92,1.89,1.92,1.89,0,0-3.24,.09-3.39,1.47-.18,1.66,2.9,1.75,2.9,1.75,0,0-2.64,.18-2.69,1.42-.05,1.28,3.42,1.63,3.42,1.63,0,0-1.84,.48-1.38,1.36,.45,.88,7.8,1.76,10.09,.56,2.28-1.2,3.12-10.68,2.82-12.78-.09-.6-.42-1.6-2.99-2.68-.54-.23-1.17,0-1.44,.52l-.72,1.38-.22,.05Z" style="fill:#ebb376;"></path><path d="M257.71,382.08s0,0,.01,0l5.64-.43c.08,0,.13-.08,.13-.17,0-.09-.07-.15-.15-.15l-5.64,.43c-.08,0-.13,.08-.13,.17,0,.08,.06,.14,.13,.15Z" style="opacity:.2;"></path><path d="M257.39,385.31h0l5.45,.02c.08,0,.14-.07,.14-.16,0-.09-.05-.14-.14-.16l-5.45-.02c-.08,0-.14,.07-.14,.16,0,.09,.06,.15,.13,.16Z" style="opacity:.2;"></path><path d="M258.14,388.36l4.05,.13c.08,0,.14-.07,.14-.15,0-.09-.06-.16-.13-.16l-4.05-.13c-.08,0-.14,.07-.14,.15,0,.09,.06,.16,.13,.16Z" style="opacity:.2;"></path></g><path d="M286.91,378.43s6.61-.1,7.63,2.37c0,0,.23-4.12-7.97-3.72l.34,1.35Z" style="opacity:.3;"></path></g><path d="M275.88,353.26c0,.65,2.61,13.61,2.61,13.61h5.51l-.62-2.47-3.43,.4-4.06-11.54Z" style="opacity:.3;"></path></g></g></g><g id="freepik--Character_1--inject-103"><g><g><polygon points="173.3 460.94 176.31 451.93 154.54 439.79 149.81 453.46 173.3 460.94" style="fill:#b97964;"></polygon><g><path d="M173.62,448.79l-1.6,2.97c-.36,.67-.36,1.48-.03,2.17,1.42,2.97-.16,3.78-3.36,4.47-.77,1.11,.41,2.16,.73,2.45l6.89,6.57c.57,.56,1.48,.54,2.04-.03,.1-.1,.18-.22,.25-.34,1.94-3.61,2.86-5.32,5.27-9.81l7.38-13.74c2.01-3.74-1.34-6.55-2.52-5.19-5.26,6.11-9.94,9.93-13.11,10.99-.57,.21-.61-.34-1.94-.5Z" style="fill:#263238;"></path><path d="M179.39,443.58c-.06-.43-.32-.81-.7-1.03-.19-.14-.45-.15-.65-.04-1.16,.58-1.42,5.23-1.44,5.75,0,.06,0,.11,.05,.15,.07,.08,.19,.08,.26,.01,.71-.8,1.33-1.67,1.86-2.59,.45-.67,.67-1.46,.63-2.26Zm-1.2-.68c.09-.05,.2-.04,.28,.02,.27,.16,.46,.44,.51,.75,.18,1.18-1.19,3.07-1.98,4.06,.15-1.91,.56-4.51,1.2-4.83Z" style="fill:#467B65;"></path><path d="M177.01,448.33c.13-1.37-.44-4.69-1.48-5.08-.21-.09-.53-.07-.87,.39-1.33,1.91,1.86,4.75,2.02,4.83,.05,.05,.13,.07,.2,.05,.03-.03,.05-.07,.06-.12l.08-.07Zm-2.09-4.46c.24-.36,.38-.28,.43-.26,.65,.21,1.26,2.73,1.25,4.28-.72-.71-2.45-2.61-1.76-3.9l.08-.13Z" style="fill:#467B65;"></path><path d="M177.29,451.61c-.09,0-.17-.05-.22-.13-.62-1.09-.72-2.44-.29-3.61,.05-.13,.19-.19,.32-.15,.13,.05,.2,.19,.15,.32-.39,1.03-.29,2.23,.25,3.19,.07,.12,.03,.27-.09,.34-.04,.02-.08,.03-.12,.03Z" style="fill:#467B65;"></path><path d="M179.68,450.51c-.09,0-.17-.05-.22-.13-.62-1.09-.72-2.44-.29-3.61,.05-.13,.19-.2,.32-.15,.13,.05,.2,.19,.15,.32-.39,1.03-.29,2.23,.25,3.19,.07,.12,.03,.27-.09,.34-.04,.02-.08,.03-.12,.03Z" style="fill:#467B65;"></path><path d="M182.08,448.84c-.09,0-.17-.05-.22-.13-.62-1.09-.72-2.44-.29-3.61,.05-.13,.19-.19,.32-.15,.13,.05,.2,.19,.15,.32-.39,1.04-.29,2.23,.25,3.19,.07,.12,.03,.27-.09,.34-.04,.02-.08,.03-.12,.03Z" style="fill:#467B65;"></path></g><polygon points="166.04 446.21 168.71 447.7 164.57 458.16 161.45 457.16 166.04 446.21" style="opacity:.3;"></polygon><path d="M105.55,400.52l10.86,6.64c13.94,.69,61.06,1.08,61.2,17.84,4.62,19.76-38.04,17.88-66.41,18.15-.19,0-.36,.12-.47,.3-.25,.39-3,1.8-6.52,2.36-4.33,.69-14.24,1.29-20.6,.28-10.98-1.74-14.14-12.16-12.04-26.83,.86-6.03,4.19-10.92,5.2-18.43l28.77-.32Z" style="fill:#263238;"></path><path d="M75.8,422.82l.07,.68s35.88-5.94,57.74,8.43c0,0,23.69-5.81,28.5-10.23-26.24,13.8-49.74-2.18-49.74-2.18l-11.57-5.17c-9.46-4.23-18.98-1-25,8.47Z" style="isolation:isolate; opacity:.2;"></path><polygon points="116.42 446.06 120.57 454.6 144.62 448.07 138.45 434.99 116.42 446.06" style="fill:#b97964;"></polygon><g><path d="M125.87,454.42l-1.99-2.73c-.45-.62-1.18-.96-1.94-.96-3.29,0-3.34-1.78-2.57-4.96-.66-1.18-2.13-.56-2.53-.41l-8.9,3.36c-.75,.27-1.13,1.1-.86,1.85,.05,.13,.12,.26,.2,.37,2.41,3.31,3.55,4.88,6.55,9l9.18,12.61c2.5,3.44,6.48,1.63,5.77-.02-3.23-7.39-4.63-13.26-4.21-16.58,.06-.6,.57-.4,1.29-1.53Z" style="fill:#263238;"></path><path d="M128.07,461.88c.42,.14,.87,.07,1.23-.19,.21-.11,.33-.34,.32-.57-.02-1.3-4.09-3.55-4.56-3.79-.05-.03-.1-.04-.16-.02-.1,.03-.16,.13-.13,.23,.41,.98,.92,1.92,1.53,2.8,.41,.69,1.03,1.23,1.77,1.55Zm1.13-.78c0,.1-.05,.2-.14,.24-.27,.17-.59,.22-.9,.13-1.14-.35-2.25-2.41-2.8-3.55,1.65,.96,3.82,2.46,3.84,3.17Z" style="fill:#467B65;"></path><path d="M124.82,457.67c1.17,.71,4.42,1.63,5.22,.87,.17-.15,.3-.45,.02-.96-1.15-2.03-5.09-.38-5.23-.28-.07,.02-.12,.09-.13,.16,.01,.04,.04,.08,.08,.11l.03,.1Zm4.93,.05c.22,.37,.09,.46,.05,.5-.47,.49-3-.05-4.4-.73,.95-.34,3.41-1.08,4.27,.11l.08,.13Z" style="fill:#467B65;"></path><path d="M125.15,458.1c-.07,0-.13-.03-.18-.08-.76-.8-1.88-1.22-2.98-1.16-.13,.03-.26-.09-.27-.23s.1-.26,.23-.27c1.25-.09,2.51,.41,3.38,1.31,.1,.1,.09,.26,0,.35-.05,.05-.11,.07-.17,.07Z" style="fill:#467B65;"></path><path d="M125.11,460.72c-.07,0-.13-.03-.18-.08-.76-.8-1.89-1.22-2.98-1.15-.13,.03-.26-.09-.27-.23s.09-.26,.23-.27c1.25-.09,2.51,.4,3.38,1.31,.1,.1,.09,.26,0,.35-.05,.05-.11,.07-.17,.07Z" style="fill:#467B65;"></path><path d="M125.57,463.61c-.07,0-.13-.03-.18-.08-.77-.8-1.89-1.22-2.98-1.15-.13,.03-.26-.09-.27-.23s.09-.26,.23-.27c1.25-.09,2.51,.4,3.38,1.31,.1,.1,.09,.26,0,.35-.05,.05-.11,.07-.17,.07Z" style="fill:#467B65;"></path></g><path d="M166.8,445.44s-55.24-30.92-74.21-31.51c-18.97-.59-21.12,13.73-14.14,24.75s24.49,5.68,24.49,5.68c0,0-13.85-3.51-12.14-7.26s6.83,2.07,6.83,2.07c0,0,33.56,13.78,63.51,18.66l5.66-12.39Z" style="fill:#263238;"></path><polygon points="138.34 430.13 156.12 440.39 158 440.19 141.17 429.59 138.34 430.13" style="isolation:isolate; opacity:.2;"></polygon><path d="M110.12,443.89s-17.92-7.11-17.72-7.11,11.29,8.31,14.92,8.28l2.79-1.17Z" style="isolation:isolate; opacity:.2;"></path></g><g><g><polygon points="147.94 351.54 153.75 344.81 159.68 346.9 155.64 354.78 147.94 351.54" style="fill:#b97964;"></polygon><g><path d="M152.87,344.25s-.51-3.05,1-5.11c1.51-2.06,2.17-4.11,3.4-5.56,1.23-1.45,1.26,1.11,1,2.48-.26,1.37-.54,2.93,.52,2.95,1.06,.03,9.1-4.28,10.57-4.07,1.47,.21,.38,1.31,.38,1.31,0,0,1.98-.99,2.59-.32,.16,.18,.24,.84-.59,1.44-1.87,1.34-5.94,3.95-5.94,3.95,.23-.15,5.49-3.01,6.33-3.34,1.1-.43,1.84-.06,2.06,.58,.32,.92-6.08,4.69-6.23,5.03,0,0,3.61-2.29,4.71-1.68,1.1,.61-1.09,2.17-3.29,3.19-2.01,.93-5.72,3.28-7.86,4.03-2.64,.92-4.61,.94-6.42-.95-1.81-1.89-2.22-3.94-2.22-3.94Z" style="fill:#b97964;"></path><path d="M164.92,339.23s-.08-.02-.1-.06c-.04-.06-.02-.13,.04-.17,1.49-.98,3.03-1.89,4.59-2.73,.06-.03,.14,0,.17,.05,.03,.06,0,.14-.05,.17-1.56,.83-3.09,1.74-4.57,2.72-.02,.01-.05,.02-.07,.02Z" style="opacity:.3;"></path><path d="M166.63,344.71c-.06,0-.11-.04-.12-.1-.5-2.21-1.69-4.28-3.33-5.84-.05-.05-.05-.13,0-.18,.05-.05,.13-.05,.18,0,1.68,1.59,2.88,3.71,3.4,5.96,.02,.07-.03,.13-.09,.15,0,0-.02,0-.03,0Z" style="opacity:.3;"></path><path d="M156.89,345.18s-.08-.02-.11-.06c-.03-.06-.01-.14,.04-.17,.78-.45,1.4-1.2,1.71-2.04,.31-.85,.31-1.82,.01-2.67-.02-.07,.01-.14,.08-.16,.07-.02,.14,.01,.16,.08,.32,.9,.32,1.94-.01,2.84-.33,.9-.99,1.69-1.82,2.18-.02,.01-.04,.02-.06,.02Z" style="opacity:.3;"></path></g></g><path d="M113.93,347.1s4.51,2.65,10.09,8.74c5.58,6.09,12.85,12.4,13.55,10.89,.7-1.51,13.05-19.62,13.05-19.62l7.86,4.46s-11.53,29.82-19.03,31c-7.5,1.17-24.98-13.91-24.98-13.91l-.53-21.55Z" style="fill:#467B65;"></path></g><g><path d="M70.81,358.07c3.42,10.26,3.58,33.45,2.37,46.26l38.74-.25c6.66-25.56,4.41-43.49,3.85-49.47-.71-7.28-1.83-7.56-1.83-7.56,0,0-7.9-.77-14.78-.72-5.33,.2-10.63,.78-15.87,1.72-3.9,.65-7.76,1.52-11.57,2.6-1.63,.46-2.58,2.16-2.12,3.8,.01,.05,.03,.1,.05,.15,.41,1.15,.8,2.32,1.17,3.46Z" style="fill:#467B65;"></path><path d="M111.92,404.08l-23.36,.15-15.38,.1c1.01-11.93,.91-23.94-.31-35.85-.35-3.53-1.04-7.02-2.06-10.41-.36-1.14-.76-2.31-1.17-3.51-.55-1.61,.31-3.35,1.91-3.9,.05-.02,.1-.03,.15-.05,3.81-1.06,7.67-1.92,11.57-2.55,5.25-.93,10.55-1.49,15.87-1.67,6.88-.05,14.78,.72,14.78,.72,0,0,1.12,.28,1.83,7.56,.57,5.93,2.82,23.86-3.85,49.42Z" style="fill:#fff; isolation:isolate; opacity:.6;"></path><path d="M73.18,404.33c1.01-11.93,.91-23.94-.31-35.85,4.77,6.77,13.15,20.43,15.69,35.75l-15.38,.1Z" style="isolation:isolate; opacity:.2;"></path><path d="M79.86,349.41c-1.97,2.82,22.26,7.35,22.26,7.35,0,0,14.18-9.2-2.38-10.64-3.37-.3-16.76-1.14-19.88,3.29Z" style="fill:#cd877b;"></path><path d="M102.91,361.98s13.06-10.78,6.3-17.22c-6.76-6.45-38.56-9.33-35.87,5.36,0,0,4.09-1.21,8.23,2.73,8.71,8.33,21.35,9.14,21.35,9.14Z" style="fill:#467B65;"></path><path d="M101.82,358.88s7.39-5.74,4.79-10.91c-2.6-5.17-17.98-10.84-29.01-3.71,2.64,1.35,5.1,3.05,7.31,5.03,4.37,3.74,16.91,9.59,16.91,9.59Z" style="isolation:isolate; opacity:.2;"></path><path d="M99.01,359.61c0,.41-.32,.74-.73,.75-.41,0-.74-.32-.75-.73s.32-.74,.73-.75c0,0,.01,0,.02,0,.4,0,.72,.33,.73,.73Z" style="isolation:isolate; opacity:.2;"></path><path d="M106.38,357.49c0,.4-.32,.73-.72,.74h-.01c-.41,.05-.77-.24-.82-.64-.05-.41,.24-.77,.64-.82,.06,0,.12,0,.18,0,.4,0,.73,.33,.73,.73Z" style="isolation:isolate; opacity:.2;"></path><path d="M113.25,364.88c0,.41-.32,.74-.73,.75-.41,0-.74-.32-.75-.73,0-.41,.32-.74,.73-.75h.01c.4,0,.73,.32,.74,.73Z" style="fill:#263238;"></path><path d="M97.34,368.65c0,.4-.33,.73-.73,.73s-.73-.33-.73-.73,.33-.73,.73-.73h0c.4,0,.73,.33,.73,.73Z" style="fill:#263238;"></path><path d="M112.34,365.19h0s-2.86-.39-3.35-4.04c-.06-1.77-1.51-3.17-3.28-3.16-.15,0-.28-.11-.28-.26-.01-.14,.09-.27,.23-.28,0,0,.01,0,.02,0,2.03,0,3.72,1.59,3.83,3.62,.43,3.21,2.86,3.58,2.88,3.59,.14,.02,.25,.14,.24,.29-.02,.15-.15,.25-.3,.24Z" style="fill:#263238;"></path><path d="M96.61,368.65c-.14,0-.26-.11-.27-.26-.06-1.88,.63-3.71,1.92-5.08,.5-.44,.8-1.08,.82-1.75-.06-.67-.34-1.31-.81-1.79-.12-.09-.15-.25-.06-.37,.09-.12,.25-.15,.37-.06,.02,.01,.04,.03,.05,.05,.58,.57,.93,1.33,.99,2.14-.02,.82-.37,1.59-.97,2.14-1.17,1.26-1.81,2.94-1.77,4.66,0,.15-.1,.27-.25,.29l-.02,.02Z" style="fill:#263238;"></path></g><g><path d="M103.46,312.08c-.06,0-.12-.02-.17-.06-.1-.1-.1-.27,0-.37,2.07-2.63,1.84-6.4-.52-8.76-4.07-4.34-10.14-.65-10.21-.62-.11,.1-.28,.08-.38-.03-.1-.11-.08-.28,.03-.38,.02-.02,.04-.03,.07-.04,.06,0,6.51-3.95,10.88,.71,2.51,2.58,2.74,6.61,.55,9.46-.06,.07-.15,.11-.25,.11Z" style="fill:#263238;"></path><path d="M103.02,312.41c-.09,0-.17-.04-.23-.12-.08-.12-.04-.28,.08-.36,0,0,2.8-1.91,3.11-4.45,.12-1.31-.36-2.61-1.31-3.53-.11-.1-.11-.27,0-.38h0c.11-.11,.28-.11,.39,0,1.05,1.04,1.58,2.49,1.45,3.96-.34,2.78-3.21,4.73-3.34,4.82-.04,.04-.09,.06-.14,.06Z" style="fill:#263238;"></path><path d="M78.76,338.42c-2.02,.17-4.01-.62-5.36-2.14-.1-.1-.1-.27,0-.37,.1-.1,.26-.11,.36-.01h.01c3.01,3.93,11.54,.6,11.62,.57,.14-.06,.29,0,.35,.14h0c.06,.14,0,.29-.14,.34h-.01c-2.18,.87-4.5,1.37-6.84,1.47Z" style="fill:#263238;"></path><path d="M104.36,313.95c.61-5.33-2.83-10.28-8.04-11.56-9.32-2.82-18.94,6.44-18.94,6.44,0,0-7.24,29.84,12.8,28.24,20.03-1.61,14.18-23.12,14.18-23.12Z" style="fill:#263238;"></path><path d="M84.8,348.41s3.77,2.02,8.7,5.01c1.03,.62,2.13,1.13,3.26,1.51,3.07,1.03,5.79,1.46,6.26-.02,.11-.32,.17-.67,.2-1.02,.21-2.38-.56-5.54-2.65-6.7-2.35-1.31-3.59-2.56-3.59-4.85-.01-1.3,.23-2.69,.55-4.05l-2.64-1.04-9.98-7.2c1.86,5.13,3.86,14.49-.12,18.37Z" style="fill:#b97964;"></path><path d="M97,342.84c-2.58-1-5.56-3-5.72-5.81-.06-1.19,.01-2.33,.17-3.09l5.83,5.53c-.22,1.08-.25,1.78-.28,3.37Z" style="opacity:.2;"></path><path d="M81.65,320.6c2.27,8.65,3.04,12.35,8.34,16.2,7.97,5.79,18.07,1.72,18.43-7.29,.32-8.11-3.44-20.89-12.67-23.14-9.1-2.22-16.36,5.58-14.09,14.23Z" style="fill:#b97964;"></path><path d="M93.96,321.51c.2,.92,.83,1.6,1.41,1.52,.58-.08,.89-.9,.69-1.82-.2-.92-.83-1.6-1.41-1.52-.58,.08-.89,.9-.69,1.82Z" style="fill:#263238;"></path><path d="M102.87,319.97c.19,.89,.82,1.55,1.4,1.47,.58-.08,.89-.88,.7-1.77-.19-.89-.82-1.55-1.4-1.47-.58,.08-.89,.88-.7,1.77Z" style="fill:#263238;"></path><path d="M91.12,318.63c.11,0,.22-.06,.3-.15,1.14-1.48,2.74-1.29,2.76-1.29,.24,.03,.44-.14,.46-.38,.01-.24-.17-.46-.41-.49-.08-.01-2.09-.25-3.51,1.59-.14,.18-.1,.46,.09,.61,.09,.07,.21,.11,.31,.1Z" style="fill:#263238;"></path><path d="M104.33,315.2c.08-.04,.15-.12,.17-.23,.05-.21-.09-.45-.31-.53-2.19-.79-3.54,.31-3.6,.36-.16,.13-.16,.39,0,.57,.16,.18,.41,.22,.57,.09,.05-.04,1.11-.88,2.86-.25,.11,.04,.22,.03,.31-.02Z" style="fill:#263238;"></path><path d="M99.72,320.06s1.92,3.06,3.81,4.85c.33,.31,.25,.86-.15,1.09-1.02,.58-2.35,.43-2.35,.43l-1.32-6.37Z" style="fill:#a24e3f;"></path><path d="M94.33,319.78l1.94-.81s-.85,1.69-1.94,.81Z" style="fill:#263238;"></path><path d="M103.27,318.29l1.94-.81s-.85,1.69-1.94,.81Z" style="fill:#263238;"></path><path d="M87.76,320.86s2.36-6.69-1.42-10.76c0,0,15.39-7.27,20.3,8.1,0,0-.81-15.1-15.94-14.03-15.13,1.07-13,23.14-4.59,28.98,.01,.02-.42-7.53,1.65-12.29Z" style="fill:#263238;"></path><path d="M80.18,328.2c1.34,1.63,3.21,2.48,4.82,2.61,2.42,.2,3-3.74,1.82-5.94-1.06-1.98-3.58-2.99-5.76-2.15-2.15,.82-2.4,3.62-.88,5.48Z" style="fill:#b97964;"></path><path d="M85.01,327.16c-.11,0-.22-.08-.24-.19-.18-.76-.67-1.44-1.33-1.85-.67-.41-1.49-.55-2.25-.37-.14,.04-.27-.05-.3-.19-.03-.13,.05-.27,.19-.3,.89-.21,1.85-.05,2.63,.43,.78,.48,1.34,1.27,1.55,2.16,.03,.13-.05,.27-.19,.3-.02,0-.04,0-.06,0Z" style="opacity:.2;"></path><path d="M102.12,329.15c-.4,1.01-.73,2.05-.99,3.11h-.58c-2.6-.22-3.73-1.19-4.2-2.14-.22-.49-.31-1.03-.28-1.56,0-.31,.06-.61,.15-.9,1.54,.85,3.25,1.36,5.01,1.49,.54-.01,.88,.01,.88,.01Z" style="fill:#263238;"></path><path d="M101.24,329.05l-.32,.91c-2.44-.21-4.15-.7-4.84-1.5,0-.31,.06-.61,.15-.9,1.54,.85,3.25,1.36,5.01,1.49Z" style="fill:#fff;"></path><path d="M100.55,332.21c-2.6-.22-3.73-1.19-4.2-2.14,.99,.1,1.95,.38,2.84,.82,.58,.29,1.05,.75,1.36,1.32Z" style="fill:#c15854;"></path><g><path d="M78.78,309.15s4.37-6.95-3.05-9.72c-7.42-2.76-14.61,6.8-10.16,13.41,2.48,3.81,7.19,5.52,11.55,4.19l1.67-7.88Z" style="fill:#263238;"></path><path d="M79.26,308.48c-.06,0-.12-.01-.17-.05-.1-.1-.11-.26-.01-.36h.01c.19-.24,4.5-5.57,.52-8.9-.1-.1-.1-.27,0-.37,.1-.1,.26-.11,.36-.01h.01c4.39,3.67-.41,9.59-.45,9.65-.07,.07-.18,.09-.28,.05Z" style="fill:#263238;"></path><path d="M71.3,318.8c-4.4-.18-7.83-3.89-7.66-8.29,.02-.44,.07-.87,.16-1.3,.46-2.35,1.91-3.88,3.88-4.09,.14-.02,.27,.07,.3,.21v.03c.02,.14-.09,.27-.23,.29-1.74,.19-3.01,1.56-3.42,3.67-.63,3.12,.78,6.29,3.51,7.92,4.87,2.61,6.66-.52,6.73-.65,.07-.13,.23-.18,.36-.11h0c.13,.07,.18,.22,.11,.35h0c-.81,1.28-2.23,2.02-3.74,1.98Z" style="fill:#263238;"></path></g></g><g><path d="M70.46,351.31c-.67,.24-5,3.86-4.8,12.36,.31,12.45,3.37,38.24,4.8,40.66,1.42,2.42,39.1,12.98,39.66,13.59s2.51-6.57,2.51-6.57l-29.01-18.4s-1.72-25.93-2.4-29.82c-.68-3.89-2.66-14.72-10.77-11.82Z" style="fill:#467B65;"></path><path d="M112.31,412.52l1.63,.73s7.68-.61,9.63,1.33c1.95,1.94,3.04,10.8,3.04,10.8l-16.47-7.46,2.18-5.4Z" style="fill:#b97964;"></path></g></g></g></svg>
